<svg width="20" height="20" viewBox="0 0 20 20" fill="none" xmlns="http://www.w3.org/2000/svg">
<g clip-path="url(#clip0_162_472)">
<path d="M19.4603 8.69904C19.4599 8.69856 19.4594 8.69816 19.4589 8.69768L11.3005 0.53955C10.9528 0.19165 10.4904 0 9.99859 0C9.50683 0 9.04451 0.191498 8.69659 0.539398L0.542439 8.69336C0.539693 8.69616 0.536947 8.69904 0.534201 8.70176C-0.179911 9.42 -0.17869 10.5853 0.537708 11.3017C0.865007 11.6292 1.2973 11.8189 1.75948 11.8386C1.77825 11.8405 1.79717 11.8414 1.81625 11.8414H2.14141V17.8453C2.14141 19.0334 3.10806 20 4.2964 20H7.48823C7.81171 20 8.07419 19.7377 8.07419 19.4141V14.707C8.07419 14.1649 8.51515 13.7239 9.05731 13.7239H10.94C11.482 13.7239 11.9231 14.1649 11.9231 14.707V19.4141C11.9231 19.7377 12.1853 20 12.509 20H15.7008C16.8892 20 17.8558 19.0334 17.8558 17.8453V11.8414H18.1573C18.649 11.8414 19.1113 11.6499 19.4594 11.302C20.1766 10.5844 20.1768 9.41712 19.4603 8.69904Z" fill="black"/>
</g>
<defs>
<clipPath id="clip0_162_472">
<rect width="20" height="20" fill="white"/>
</clipPath>
</defs>
</svg>
