<svg width="20" height="20" viewBox="0 0 20 20" fill="none" xmlns="http://www.w3.org/2000/svg">
<g clip-path="url(#clip0_162_478)">
<path d="M19.5 8.66C19.4994 8.65952 19.499 8.65888 19.4985 8.65848L11.3401 0.500338C10.9923 0.152435 10.53 -0.0390625 10.0382 -0.0390625C9.54642 -0.0390625 9.0841 0.152435 8.73618 0.500338L0.581991 8.65432C0.579245 8.65704 0.576347 8.66 0.573752 8.66272C-0.140361 9.38096 -0.13914 10.5463 0.57726 11.2627C0.904562 11.5902 1.3367 11.7797 1.79888 11.7997C1.8178 11.8015 1.83672 11.8024 1.8558 11.8024H2.18081V17.8062C2.18081 18.9943 3.14761 19.961 4.33582 19.961H7.52766C7.85129 19.961 8.11362 19.6986 8.11362 19.375V14.668C8.11362 14.1258 8.55474 13.6849 9.0969 13.6849H10.9795C11.5216 13.6849 11.9626 14.1258 11.9626 14.668V19.375C11.9626 19.6986 12.2249 19.961 12.5486 19.961H15.7404C16.9287 19.961 17.8955 18.9943 17.8955 17.8062V11.8024H18.1969C18.6886 11.8024 19.1509 11.6109 19.499 11.2628C20.2161 10.5454 20.2164 9.37792 19.5 8.66ZM18.6703 10.4342C18.5438 10.5608 18.3756 10.6305 18.1969 10.6305H17.3095C16.9859 10.6305 16.7235 10.8928 16.7235 11.2165V17.8062C16.7235 18.3482 16.2825 18.7891 15.7404 18.7891H13.1345V14.668C13.1345 13.4798 12.1679 12.513 10.9795 12.513H9.0969C7.90851 12.513 6.94171 13.4798 6.94171 14.668V18.7891H4.33582C3.79383 18.7891 3.35269 18.3482 3.35269 17.8062V11.2165C3.35269 10.8928 3.09039 10.6305 2.76675 10.6305H1.89455C1.8854 10.6299 1.87639 10.6294 1.86709 10.6293C1.69253 10.6262 1.5288 10.557 1.40612 10.4342C1.14519 10.1732 1.14519 9.74856 1.40612 9.48744C1.40627 9.48744 1.40627 9.48728 1.40643 9.48712L1.40688 9.48672L9.56498 1.3289C9.69138 1.2024 9.85938 1.13282 10.0382 1.13282C10.2169 1.13282 10.3849 1.2024 10.5114 1.3289L18.6676 9.48504C18.6689 9.48624 18.6703 9.48744 18.6715 9.48872C18.931 9.75008 18.9306 10.1738 18.6703 10.4342Z" fill="black"/>
</g>
<defs>
<clipPath id="clip0_162_478">
<rect width="20" height="20" fill="white"/>
</clipPath>
</defs>
</svg>
