<svg width="75" height="75" viewBox="0 0 75 75" fill="none" xmlns="http://www.w3.org/2000/svg">
<g clip-path="url(#clip0_124_484)">
<path d="M73.1249 32.475C73.1226 32.4733 73.1208 32.4709 73.1192 32.4692L42.525 1.87627C41.2209 0.571633 39.4873 -0.146484 37.643 -0.146484C35.7988 -0.146484 34.065 0.571633 32.7604 1.87627L2.18222 32.4538C2.17192 32.464 2.16105 32.475 2.15133 32.4853C-0.526596 35.1787 -0.522018 39.5486 2.16448 42.2351C3.39187 43.463 5.01236 44.1737 6.74556 44.2487C6.81652 44.2556 6.88747 44.259 6.959 44.259H8.1778V66.773C8.1778 71.2288 11.8033 74.8537 16.2591 74.8537H28.2285C29.4421 74.8537 30.4257 73.8695 30.4257 72.6564V55.0051C30.4257 52.972 32.08 51.3182 34.113 51.3182H41.1728C43.2059 51.3182 44.8596 52.972 44.8596 55.0051V72.6564C44.8596 73.8695 45.8432 74.8537 47.0568 74.8537H59.0264C63.4826 74.8537 67.1076 71.2288 67.1076 66.773V44.259H68.2382C70.0818 44.259 71.8156 43.5409 73.1208 42.2356C75.8102 39.5451 75.8114 35.1671 73.1249 32.475ZM70.0133 39.1285C69.5388 39.603 68.9083 39.8644 68.2382 39.8644H64.9103C63.6966 39.8644 62.7131 40.8481 62.7131 42.0617V66.773C62.7131 68.8055 61.0593 70.4592 59.0264 70.4592H49.2541V55.0051C49.2541 50.5492 45.6292 46.9237 41.1728 46.9237H34.113C29.6567 46.9237 26.0312 50.5492 26.0312 55.0051V70.4592H16.2591C14.2266 70.4592 12.5723 68.8055 12.5723 66.773V42.0617C12.5723 40.8481 11.5887 39.8644 10.3751 39.8644H7.10434C7.07001 39.8621 7.03624 39.8605 7.00134 39.8599C6.34674 39.8485 5.73277 39.5886 5.2727 39.1281C4.29423 38.1495 4.29423 36.5571 5.2727 35.578C5.27328 35.578 5.27328 35.5774 5.27386 35.5768L5.27558 35.5752L35.8685 4.98335C36.3424 4.50899 36.9724 4.24805 37.643 4.24805C38.313 4.24805 38.9431 4.50899 39.4174 4.98335L70.0035 35.5689C70.008 35.5735 70.0133 35.578 70.0178 35.5826C70.9911 36.5628 70.9894 38.1519 70.0133 39.1285Z" fill="black"/>
</g>
<defs>
<clipPath id="clip0_124_484">
<rect width="75" height="75" fill="white"/>
</clipPath>
</defs>
</svg>
