<svg width="25" height="25" viewBox="0 0 25 25" fill="none" xmlns="http://www.w3.org/2000/svg">
<g clip-path="url(#clip0_122_478)">
<path d="M24.3749 10.825C24.3741 10.8244 24.3736 10.8236 24.373 10.8231L14.175 0.625422C13.7403 0.190544 13.1624 -0.0488281 12.5476 -0.0488281C11.9329 -0.0488281 11.355 0.190544 10.9201 0.625422L0.727366 10.8179C0.723934 10.8213 0.720311 10.825 0.717068 10.8284C-0.175573 11.7262 -0.174047 13.1829 0.721453 14.0784C1.13058 14.4877 1.67075 14.7246 2.24848 14.7496C2.27213 14.7519 2.29578 14.753 2.31963 14.753H2.72589V22.2577C2.72589 23.7429 3.93439 24.9512 5.41965 24.9512H9.40945C9.81399 24.9512 10.1419 24.6232 10.1419 24.2188V18.335C10.1419 17.6573 10.6933 17.1061 11.371 17.1061H13.7242C14.4019 17.1061 14.9531 17.6573 14.9531 18.335V24.2188C14.9531 24.6232 15.281 24.9512 15.6856 24.9512H19.6754C21.1608 24.9512 22.3692 23.7429 22.3692 22.2577V14.753H22.746C23.3606 14.753 23.9385 14.5136 24.3736 14.0785C25.27 13.1817 25.2704 11.7224 24.3749 10.825ZM23.3377 13.0428C23.1796 13.201 22.9694 13.2881 22.746 13.2881H21.6367C21.2322 13.2881 20.9043 13.616 20.9043 14.0206V22.2577C20.9043 22.9352 20.353 23.4864 19.6754 23.4864H16.418V18.335C16.418 16.8497 15.2097 15.6412 13.7242 15.6412H11.371C9.88552 15.6412 8.67702 16.8497 8.67702 18.335V23.4864H5.41965C4.74216 23.4864 4.19074 22.9352 4.19074 22.2577V14.0206C4.19074 13.616 3.86286 13.2881 3.45831 13.2881H2.36807C2.35663 13.2874 2.34537 13.2868 2.33374 13.2866C2.11554 13.2828 1.91088 13.1962 1.75753 13.0427C1.43137 12.7165 1.43137 12.1857 1.75753 11.8593C1.75772 11.8593 1.75772 11.8591 1.75791 11.8589L1.75848 11.8584L11.9561 1.66112C12.1141 1.503 12.3241 1.41602 12.5476 1.41602C12.771 1.41602 12.981 1.503 13.1391 1.66112L23.3344 11.8563C23.336 11.8578 23.3377 11.8593 23.3392 11.8609C23.6636 12.1876 23.6631 12.7173 23.3377 13.0428Z" fill="black"/>
</g>
<defs>
<clipPath id="clip0_122_478">
<rect width="25" height="25" fill="white"/>
</clipPath>
</defs>
</svg>
