<svg width="50" height="50" viewBox="0 0 50 50" fill="none" xmlns="http://www.w3.org/2000/svg">
<g clip-path="url(#clip0_124_481)">
<path d="M48.7498 21.65C48.7483 21.6489 48.7471 21.6473 48.746 21.6461L28.3499 1.25084C27.4805 0.381089 26.3248 -0.0976562 25.0953 -0.0976562C23.8658 -0.0976562 22.7099 0.381089 21.8402 1.25084L1.45473 21.6359C1.44787 21.6427 1.44062 21.65 1.43414 21.6569C-0.351145 23.4525 -0.348094 26.3657 1.44291 28.1568C2.26117 28.9753 3.34149 29.4491 4.49696 29.4991C4.54426 29.5037 4.59157 29.506 4.63925 29.506H5.45178V44.5154C5.45178 47.4859 7.86879 49.9025 10.8393 49.9025H18.8189C19.628 49.9025 20.2837 49.2463 20.2837 48.4376V36.67C20.2837 35.3147 21.3866 34.2121 22.7419 34.2121H27.4485C28.8039 34.2121 29.9063 35.3147 29.9063 36.67V48.4376C29.9063 49.2463 30.5621 49.9025 31.3711 49.9025H39.3508C42.3216 49.9025 44.7383 47.4859 44.7383 44.5154V29.506H45.492C46.7211 29.506 47.877 29.0273 48.7471 28.1571C50.5401 26.3634 50.5409 23.4448 48.7498 21.65ZM46.6754 26.0857C46.3591 26.402 45.9388 26.5763 45.492 26.5763H43.2735C42.4643 26.5763 41.8086 27.2321 41.8086 28.0411V44.5154C41.8086 45.8703 40.7061 46.9728 39.3508 46.9728H32.836V36.67C32.836 33.6994 30.4194 31.2824 27.4485 31.2824H22.7419C19.771 31.2824 17.354 33.6994 17.354 36.67V46.9728H10.8393C9.48431 46.9728 8.38148 45.8703 8.38148 44.5154V28.0411C8.38148 27.2321 7.72573 26.5763 6.91663 26.5763H4.73615C4.71326 26.5747 4.69075 26.5737 4.66748 26.5733C4.23108 26.5656 3.82176 26.3924 3.51505 26.0854C2.86274 25.433 2.86274 24.3714 3.51505 23.7187C3.51544 23.7187 3.51544 23.7183 3.51583 23.7179L3.51697 23.7168L23.9123 3.32223C24.2282 3.00599 24.6482 2.83204 25.0953 2.83204C25.5419 2.83204 25.962 3.00599 26.2782 3.32223L46.6689 23.7126C46.6719 23.7156 46.6754 23.7187 46.6785 23.7217C47.3273 24.3752 47.3262 25.4346 46.6754 26.0857Z" fill="black"/>
</g>
<defs>
<clipPath id="clip0_124_481">
<rect width="50" height="50" fill="white"/>
</clipPath>
</defs>
</svg>
