<svg width="20" height="20" viewBox="0 0 20 20" fill="none" xmlns="http://www.w3.org/2000/svg">
<path d="M7.5 0.625H2.5C1.46446 0.625 0.625 1.46446 0.625 2.5V11.25C0.625 12.2855 1.46446 13.125 2.5 13.125H7.5C8.53552 13.125 9.37504 12.2855 9.37504 11.25V2.5C9.37504 1.46446 8.53552 0.625 7.5 0.625Z" fill="black"/>
<path d="M7.5 14.375H2.5C1.46446 14.375 0.625 15.2144 0.625 16.25V17.5C0.625 18.5355 1.46446 19.375 2.5 19.375H7.5C8.53552 19.375 9.37504 18.5355 9.37504 17.5V16.25C9.37504 15.2144 8.53552 14.375 7.5 14.375Z" fill="black"/>
<path d="M17.5 6.875H12.5C11.4645 6.875 10.625 7.71446 10.625 8.75V17.5C10.625 18.5355 11.4645 19.375 12.5 19.375H17.5C18.5356 19.375 19.3751 18.5355 19.3751 17.5V8.75C19.3751 7.71446 18.5356 6.875 17.5 6.875Z" fill="black"/>
<path d="M17.5 0.625H12.5C11.4645 0.625 10.625 1.46446 10.625 2.5V3.75C10.625 4.78554 11.4645 5.625 12.5 5.625H17.5C18.5356 5.625 19.3751 4.78554 19.3751 3.75V2.5C19.3751 1.46446 18.5356 0.625 17.5 0.625Z" fill="black"/>
</svg>
