<svg width="20" height="20" viewBox="0 0 20 20" fill="none" xmlns="http://www.w3.org/2000/svg">
<g clip-path="url(#clip0_162_435)">
<path d="M8.04936 16.0915C9.83704 16.0915 11.5735 15.4951 12.9838 14.3967L18.3045 19.7173C18.7019 20.1011 19.3353 20.0902 19.7191 19.6927C20.0936 19.305 20.0936 18.6903 19.7191 18.3026L14.3985 12.982C17.1242 9.47322 16.4895 4.41911 12.9807 1.69337C9.47192 -1.03238 4.41792 -0.397651 1.69215 3.11113C-1.03361 6.61993 -0.398871 11.674 3.10991 14.3998C4.52253 15.4971 6.26058 16.0924 8.04936 16.0915ZM3.77429 3.77243C6.13538 1.4113 9.96344 1.41126 12.3246 3.77235C14.6858 6.13344 14.6858 9.96154 12.3246 12.3227C9.9636 14.6838 6.1355 14.6839 3.77438 12.3227C3.77433 12.3227 3.77433 12.3227 3.77429 12.3227C1.4132 9.97874 1.3993 6.16462 3.74318 3.80355C3.75353 3.79315 3.76389 3.78279 3.77429 3.77243Z" fill="black"/>
</g>
<defs>
<clipPath id="clip0_162_435">
<rect width="20" height="20" fill="white"/>
</clipPath>
</defs>
</svg>
