<svg width="25" height="25" viewBox="0 0 25 25" fill="none" xmlns="http://www.w3.org/2000/svg">
<g clip-path="url(#clip0_274_681)">
<path d="M1.21849 24.9982C0.977024 24.9983 0.74097 24.9267 0.540184 24.7926C0.339399 24.6584 0.182903 24.4678 0.0904924 24.2447C-0.0019185 24.0216 -0.0260929 23.7761 0.0210271 23.5393C0.068147 23.3025 0.184444 23.0849 0.355209 22.9142L22.9138 0.35563C23.1428 0.126673 23.4533 -0.00195313 23.7771 -0.00195312C24.1009 -0.00195312 24.4114 0.126673 24.6404 0.35563C24.8693 0.584586 24.9979 0.895118 24.9979 1.21891C24.9979 1.5427 24.8693 1.85324 24.6404 2.08219L2.08177 24.6408C1.96851 24.7543 1.83394 24.8443 1.68579 24.9056C1.53764 24.967 1.37883 24.9984 1.21849 24.9982Z" fill="black"/>
<path d="M23.778 24.9982C23.6176 24.9984 23.4588 24.967 23.3107 24.9056C23.1625 24.8443 23.028 24.7543 22.9147 24.6408L0.356118 2.08219C0.127162 1.85324 -0.00146484 1.5427 -0.00146484 1.21891C-0.00146484 0.895118 0.127162 0.584586 0.356118 0.35563C0.585074 0.126673 0.895606 -0.00195312 1.2194 -0.00195312C1.54319 -0.00195312 1.85372 0.126673 2.08268 0.35563L24.6413 22.9142C24.812 23.0849 24.9283 23.3025 24.9755 23.5393C25.0226 23.7761 24.9984 24.0216 24.906 24.2447C24.8136 24.4678 24.6571 24.6584 24.4563 24.7926C24.2555 24.9267 24.0195 24.9983 23.778 24.9982V24.9982Z" fill="black"/>
</g>
<defs>
<clipPath id="clip0_274_681">
<rect width="25" height="25" fill="white"/>
</clipPath>
</defs>
</svg>
