<svg width="512" height="512" viewBox="0 0 512 512" fill="none" xmlns="http://www.w3.org/2000/svg">
<g clip-path="url(#clip0)">
<path d="M498.184 222.695C498.172 222.684 498.16 222.672 498.149 222.66L289.293 13.8125C280.391 4.90625 268.555 0 255.965 0C243.375 0 231.539 4.90234 222.633 13.8086L13.887 222.551C13.8167 222.621 13.7464 222.695 13.6761 222.766C-4.60519 241.152 -4.57394 270.984 13.7659 289.324C22.1448 297.707 33.2112 302.563 45.0433 303.07C45.5237 303.117 46.0081 303.141 46.4964 303.141H54.8206V456.84C54.8206 487.254 79.5667 512 109.989 512H191.7C199.981 512 206.7 505.285 206.7 497V376.5C206.7 362.621 217.989 351.332 231.867 351.332H280.063C293.942 351.332 305.231 362.621 305.231 376.5V497C305.231 505.285 311.946 512 320.231 512H401.942C432.364 512 457.11 487.254 457.11 456.84V303.141H464.828C477.414 303.141 489.25 298.238 498.16 289.332C516.52 270.961 516.528 241.078 498.184 222.695V222.695Z" fill="black"/>
</g>
<defs>
<clipPath id="clip0">
<rect width="512" height="512" fill="white"/>
</clipPath>
</defs>
</svg>
