<svg width="25" height="25" viewBox="0 0 25 25" fill="none" xmlns="http://www.w3.org/2000/svg">
<path d="M9.375 0.78125H3.125C2.5034 0.78125 1.90726 1.02818 1.46772 1.46772C1.02818 1.90726 0.78125 2.5034 0.78125 3.125V14.0625C0.78125 14.6841 1.02818 15.2802 1.46772 15.7198C1.90726 16.1593 2.5034 16.4062 3.125 16.4062H9.375C9.99658 16.4062 10.5927 16.1593 11.0323 15.7198C11.4718 15.2802 11.7188 14.6841 11.7188 14.0625V3.125C11.7188 2.5034 11.4718 1.90726 11.0323 1.46772C10.5927 1.02818 9.99658 0.78125 9.375 0.78125ZM10.1562 14.0625C10.1562 14.2697 10.0739 14.4684 9.92744 14.6149C9.78091 14.7614 9.58218 14.8438 9.375 14.8438H3.125C2.9178 14.8438 2.71909 14.7614 2.57257 14.6149C2.42606 14.4684 2.34375 14.2697 2.34375 14.0625V3.125C2.34375 2.9178 2.42606 2.71909 2.57257 2.57257C2.71909 2.42606 2.9178 2.34375 3.125 2.34375H9.375C9.58218 2.34375 9.78091 2.42606 9.92744 2.57257C10.0739 2.71909 10.1562 2.9178 10.1562 3.125V14.0625Z" fill="black"/>
<path d="M9.375 17.9688H3.125C2.5034 17.9688 1.90726 18.2157 1.46772 18.6552C1.02818 19.0948 0.78125 19.6909 0.78125 20.3125V21.875C0.78125 22.4966 1.02818 23.0927 1.46772 23.5323C1.90726 23.9718 2.5034 24.2188 3.125 24.2188H9.375C9.99658 24.2188 10.5927 23.9718 11.0323 23.5323C11.4718 23.0927 11.7188 22.4966 11.7188 21.875V20.3125C11.7188 19.6909 11.4718 19.0948 11.0323 18.6552C10.5927 18.2157 9.99658 17.9688 9.375 17.9688ZM10.1562 21.875C10.1562 22.0822 10.0739 22.2809 9.92744 22.4274C9.78091 22.5739 9.58218 22.6562 9.375 22.6562H3.125C2.9178 22.6562 2.71909 22.5739 2.57257 22.4274C2.42606 22.2809 2.34375 22.0822 2.34375 21.875V20.3125C2.34375 20.1053 2.42606 19.9066 2.57257 19.7601C2.71909 19.6136 2.9178 19.5312 3.125 19.5312H9.375C9.58218 19.5312 9.78091 19.6136 9.92744 19.7601C10.0739 19.9066 10.1562 20.1053 10.1562 20.3125V21.875Z" fill="black"/>
<path d="M21.875 8.59375H15.625C15.0034 8.59375 14.4073 8.84067 13.9677 9.28022C13.5282 9.71978 13.2812 10.3159 13.2812 10.9375V21.875C13.2812 22.4966 13.5282 23.0927 13.9677 23.5323C14.4073 23.9718 15.0034 24.2188 15.625 24.2188H21.875C22.4966 24.2188 23.0927 23.9718 23.5323 23.5323C23.9718 23.0927 24.2188 22.4966 24.2188 21.875V10.9375C24.2188 10.3159 23.9718 9.71978 23.5323 9.28022C23.0927 8.84067 22.4966 8.59375 21.875 8.59375ZM22.6562 21.875C22.6562 22.0822 22.5739 22.2809 22.4274 22.4274C22.2809 22.5739 22.0822 22.6562 21.875 22.6562H15.625C15.4178 22.6562 15.2191 22.5739 15.0726 22.4274C14.9261 22.2809 14.8438 22.0822 14.8438 21.875V10.9375C14.8438 10.7303 14.9261 10.5316 15.0726 10.3851C15.2191 10.2386 15.4178 10.1562 15.625 10.1562H21.875C22.0822 10.1562 22.2809 10.2386 22.4274 10.3851C22.5739 10.5316 22.6562 10.7303 22.6562 10.9375V21.875Z" fill="black"/>
<path d="M21.875 0.78125H15.625C15.0034 0.78125 14.4073 1.02818 13.9677 1.46772C13.5282 1.90726 13.2812 2.5034 13.2812 3.125V4.6875C13.2812 5.30908 13.5282 5.90522 13.9677 6.34478C14.4073 6.78433 15.0034 7.03125 15.625 7.03125H21.875C22.4966 7.03125 23.0927 6.78433 23.5323 6.34478C23.9718 5.90522 24.2188 5.30908 24.2188 4.6875V3.125C24.2188 2.5034 23.9718 1.90726 23.5323 1.46772C23.0927 1.02818 22.4966 0.78125 21.875 0.78125ZM22.6562 4.6875C22.6562 4.89468 22.5739 5.09341 22.4274 5.23994C22.2809 5.38643 22.0822 5.46875 21.875 5.46875H15.625C15.4178 5.46875 15.2191 5.38643 15.0726 5.23994C14.9261 5.09341 14.8438 4.89468 14.8438 4.6875V3.125C14.8438 2.9178 14.9261 2.71909 15.0726 2.57257C15.2191 2.42606 15.4178 2.34375 15.625 2.34375H21.875C22.0822 2.34375 22.2809 2.42606 22.4274 2.57257C22.5739 2.71909 22.6562 2.9178 22.6562 3.125V4.6875Z" fill="black"/>
</svg>
