<svg width="20" height="20" viewBox="0 0 20 20" fill="none" xmlns="http://www.w3.org/2000/svg">
<path d="M7.5 0.625H2.5C2.00272 0.625 1.52581 0.822544 1.17418 1.17418C0.822544 1.52581 0.625 2.00272 0.625 2.5V11.25C0.625 11.7473 0.822544 12.2242 1.17418 12.5758C1.52581 12.9274 2.00272 13.125 2.5 13.125H7.5C7.99726 13.125 8.47416 12.9274 8.82584 12.5758C9.17744 12.2242 9.37504 11.7473 9.37504 11.25V2.5C9.37504 2.00272 9.17744 1.52581 8.82584 1.17418C8.47416 0.822544 7.99726 0.625 7.5 0.625ZM8.12496 11.25C8.12496 11.4158 8.05912 11.5747 7.94195 11.6919C7.82473 11.8091 7.66574 11.875 7.5 11.875H2.5C2.33424 11.875 2.17527 11.8091 2.05806 11.6919C1.94085 11.5747 1.875 11.4158 1.875 11.25V2.5C1.875 2.33424 1.94085 2.17527 2.05806 2.05806C2.17527 1.94085 2.33424 1.875 2.5 1.875H7.5C7.66574 1.875 7.82473 1.94085 7.94195 2.05806C8.05912 2.17527 8.12496 2.33424 8.12496 2.5V11.25Z" fill="black"/>
<path d="M7.5 14.375H2.5C2.00272 14.375 1.52581 14.5725 1.17418 14.9241C0.822544 15.2758 0.625 15.7527 0.625 16.25V17.5C0.625 17.9972 0.822544 18.4741 1.17418 18.8258C1.52581 19.1774 2.00272 19.375 2.5 19.375H7.5C7.99726 19.375 8.47416 19.1774 8.82584 18.8258C9.17744 18.4741 9.37504 17.9972 9.37504 17.5V16.25C9.37504 15.7527 9.17744 15.2758 8.82584 14.9241C8.47416 14.5725 7.99726 14.375 7.5 14.375ZM8.12496 17.5C8.12496 17.6657 8.05912 17.8247 7.94195 17.9419C7.82473 18.0591 7.66574 18.1249 7.5 18.1249H2.5C2.33424 18.1249 2.17527 18.0591 2.05806 17.9419C1.94085 17.8247 1.875 17.6657 1.875 17.5V16.25C1.875 16.0842 1.94085 15.9252 2.05806 15.808C2.17527 15.6908 2.33424 15.6249 2.5 15.6249H7.5C7.66574 15.6249 7.82473 15.6908 7.94195 15.808C8.05912 15.9252 8.12496 16.0842 8.12496 16.25V17.5Z" fill="black"/>
<path d="M17.5 6.875H12.5C12.0028 6.875 11.5259 7.07254 11.1742 7.42418C10.8226 7.77582 10.625 8.25272 10.625 8.75V17.5C10.625 17.9973 10.8226 18.4742 11.1742 18.8258C11.5259 19.1774 12.0028 19.375 12.5 19.375H17.5C17.9973 19.375 18.4742 19.1774 18.8259 18.8258C19.1775 18.4742 19.3751 17.9973 19.3751 17.5V8.75C19.3751 8.25272 19.1775 7.77582 18.8259 7.42418C18.4742 7.07254 17.9973 6.875 17.5 6.875ZM18.125 17.5C18.125 17.6658 18.0592 17.8247 17.942 17.9419C17.8248 18.0591 17.6658 18.125 17.5 18.125H12.5C12.3343 18.125 12.1753 18.0591 12.0581 17.9419C11.9409 17.8247 11.8751 17.6658 11.8751 17.5V8.75C11.8751 8.58424 11.9409 8.42528 12.0581 8.30808C12.1753 8.19088 12.3343 8.12496 12.5 8.12496H17.5C17.6658 8.12496 17.8248 8.19088 17.942 8.30808C18.0592 8.42528 18.125 8.58424 18.125 8.75V17.5Z" fill="black"/>
<path d="M17.5 0.625H12.5C12.0028 0.625 11.5259 0.822544 11.1742 1.17418C10.8226 1.52581 10.625 2.00272 10.625 2.5V3.75C10.625 4.24726 10.8226 4.72418 11.1742 5.07582C11.5259 5.42746 12.0028 5.625 12.5 5.625H17.5C17.9973 5.625 18.4742 5.42746 18.8259 5.07582C19.1775 4.72418 19.3751 4.24726 19.3751 3.75V2.5C19.3751 2.00272 19.1775 1.52581 18.8259 1.17418C18.4742 0.822544 17.9973 0.625 17.5 0.625ZM18.125 3.75C18.125 3.91574 18.0592 4.07473 17.942 4.19195C17.8248 4.30914 17.6658 4.375 17.5 4.375H12.5C12.3343 4.375 12.1753 4.30914 12.0581 4.19195C11.9409 4.07473 11.8751 3.91574 11.8751 3.75V2.5C11.8751 2.33424 11.9409 2.17527 12.0581 2.05806C12.1753 1.94085 12.3343 1.875 12.5 1.875H17.5C17.6658 1.875 17.8248 1.94085 17.942 2.05806C18.0592 2.17527 18.125 2.33424 18.125 2.5V3.75Z" fill="black"/>
</svg>
