<svg width="25" height="25" viewBox="0 0 25 25" fill="none" xmlns="http://www.w3.org/2000/svg">
<path d="M9.375 0.78125H3.125C1.83058 0.78125 0.78125 1.83058 0.78125 3.125V14.0625C0.78125 15.3569 1.83058 16.4062 3.125 16.4062H9.375C10.6694 16.4062 11.7188 15.3569 11.7188 14.0625V3.125C11.7188 1.83058 10.6694 0.78125 9.375 0.78125Z" fill="black"/>
<path d="M9.375 17.9688H3.125C1.83058 17.9688 0.78125 19.0181 0.78125 20.3125V21.875C0.78125 23.1694 1.83058 24.2188 3.125 24.2188H9.375C10.6694 24.2188 11.7188 23.1694 11.7188 21.875V20.3125C11.7188 19.0181 10.6694 17.9688 9.375 17.9688Z" fill="black"/>
<path d="M21.875 8.59375H15.625C14.3306 8.59375 13.2812 9.64307 13.2812 10.9375V21.875C13.2812 23.1694 14.3306 24.2188 15.625 24.2188H21.875C23.1694 24.2188 24.2188 23.1694 24.2188 21.875V10.9375C24.2188 9.64307 23.1694 8.59375 21.875 8.59375Z" fill="black"/>
<path d="M21.875 0.78125H15.625C14.3306 0.78125 13.2812 1.83058 13.2812 3.125V4.6875C13.2812 5.98193 14.3306 7.03125 15.625 7.03125H21.875C23.1694 7.03125 24.2188 5.98193 24.2188 4.6875V3.125C24.2188 1.83058 23.1694 0.78125 21.875 0.78125Z" fill="black"/>
</svg>
