<svg width="50" height="50" viewBox="0 0 50 50" fill="none" xmlns="http://www.w3.org/2000/svg">
<path d="M18.75 1.5625H6.25C3.66116 1.5625 1.5625 3.66116 1.5625 6.25V28.125C1.5625 30.7139 3.66116 32.8125 6.25 32.8125H18.75C21.3389 32.8125 23.4375 30.7139 23.4375 28.125V6.25C23.4375 3.66116 21.3389 1.5625 18.75 1.5625Z" fill="black"/>
<path d="M18.75 35.9375H6.25C3.66116 35.9375 1.5625 38.0361 1.5625 40.625V43.75C1.5625 46.3389 3.66116 48.4375 6.25 48.4375H18.75C21.3389 48.4375 23.4375 46.3389 23.4375 43.75V40.625C23.4375 38.0361 21.3389 35.9375 18.75 35.9375Z" fill="black"/>
<path d="M43.75 17.1875H31.25C28.6611 17.1875 26.5625 19.2861 26.5625 21.875V43.75C26.5625 46.3389 28.6611 48.4375 31.25 48.4375H43.75C46.3389 48.4375 48.4375 46.3389 48.4375 43.75V21.875C48.4375 19.2861 46.3389 17.1875 43.75 17.1875Z" fill="black"/>
<path d="M43.75 1.5625H31.25C28.6611 1.5625 26.5625 3.66116 26.5625 6.25V9.375C26.5625 11.9639 28.6611 14.0625 31.25 14.0625H43.75C46.3389 14.0625 48.4375 11.9639 48.4375 9.375V6.25C48.4375 3.66116 46.3389 1.5625 43.75 1.5625Z" fill="black"/>
</svg>
