<svg width="50" height="50" viewBox="0 0 50 50" fill="none" xmlns="http://www.w3.org/2000/svg">
<path d="M3.03955 12.3528H46.9611C48.6371 12.3528 50 10.9899 50 9.31396C50 7.63801 48.6371 6.27441 46.9611 6.27441H3.03955C1.36359 6.27441 0 7.63801 0 9.31396C0 10.9899 1.36359 12.3528 3.03955 12.3528Z" fill="black"/>
<path d="M46.9611 21.9604H3.03955C1.36359 21.9604 0 23.324 0 25C0 26.676 1.36359 28.0389 3.03955 28.0389H46.9611C48.6371 28.0389 50 26.676 50 25C50 23.324 48.6371 21.9604 46.9611 21.9604Z" fill="black"/>
<path d="M46.9611 37.6465H3.03955C1.36359 37.6465 0 39.0108 0 40.6867C0 42.3627 1.36359 43.7256 3.03955 43.7256H46.9611C48.6371 43.7256 50 42.3627 50 40.6867C50 39.0108 48.6371 37.6465 46.9611 37.6465Z" fill="black"/>
</svg>
