<svg width="25" height="25" viewBox="0 0 25 25" fill="none" xmlns="http://www.w3.org/2000/svg">
<path d="M1.51978 6.17642H23.4806C24.3186 6.17642 25 5.49497 25 4.65698C25 3.819 24.3186 3.13721 23.4806 3.13721H1.51978C0.681797 3.13721 0 3.819 0 4.65698C0 5.49497 0.681797 6.17642 1.51978 6.17642Z" fill="black"/>
<path d="M23.4806 10.9802H1.51978C0.681797 10.9802 0 11.662 0 12.5C0 13.338 0.681797 14.0194 1.51978 14.0194H23.4806C24.3186 14.0194 25 13.338 25 12.5C25 11.662 24.3186 10.9802 23.4806 10.9802Z" fill="black"/>
<path d="M23.4806 18.8232H1.51978C0.681797 18.8232 0 19.5054 0 20.3434C0 21.1813 0.681797 21.8628 1.51978 21.8628H23.4806C24.3186 21.8628 25 21.1813 25 20.3434C25 19.5054 24.3186 18.8232 23.4806 18.8232Z" fill="black"/>
</svg>
