<svg width="512" height="512" viewBox="0 0 512 512" fill="none" xmlns="http://www.w3.org/2000/svg">
<path d="M8.18408 275.894L193.085 460.8C198.363 466.078 205.398 468.975 212.899 468.975C220.408 468.975 227.439 466.074 232.717 460.8L249.505 444.008C254.779 438.738 257.684 431.699 257.684 424.194C257.684 416.693 254.779 409.417 249.505 404.147L141.636 296.041L484.34 296.041C499.791 296.041 512 283.945 512 268.489V244.75C512 229.294 499.791 215.978 484.34 215.978L140.412 215.978L249.5 107.269C254.774 101.991 257.68 95.1432 257.68 87.6381C257.68 80.1413 254.774 73.194 249.5 67.92L232.713 51.1823C227.435 45.9042 220.404 43.0278 212.895 43.0278C205.394 43.0278 198.359 45.9416 193.081 51.2198L8.17991 236.121C2.8893 241.416 -0.0203206 248.484 0.000492223 255.997C-0.016158 263.536 2.88929 270.608 8.18408 275.894Z" fill="black"/>
</svg>
