<svg width="24" height="24" viewBox="0 0 24 24" fill="none" xmlns="http://www.w3.org/2000/svg">
<g clip-path="url(#clip0_124_490)">
<path d="M12.9325 23.6164L21.5999 14.9491C21.8473 14.7017 21.9831 14.372 21.9831 14.0204C21.9831 13.6683 21.8471 13.3388 21.5999 13.0914L20.8128 12.3045C20.5658 12.0573 20.2358 11.9211 19.884 11.9211C19.5324 11.9211 19.1913 12.0573 18.9443 12.3045L13.8768 17.3608V1.29657C13.8768 0.572288 13.3098 0 12.5853 0H11.4726C10.7481 0 10.1239 0.572288 10.1239 1.29657V17.4182L5.02816 12.3047C4.78071 12.0574 4.45976 11.9213 4.10795 11.9213C3.75654 11.9213 3.43088 12.0574 3.18367 12.3047L2.39909 13.0916C2.15168 13.339 2.01685 13.6686 2.01685 14.0206C2.01685 14.3722 2.15343 14.7019 2.40084 14.9493L11.0681 23.6166C11.3163 23.8646 11.6476 24.001 11.9998 24C12.3531 24.0008 12.6847 23.8646 12.9325 23.6164Z" fill="black"/>
</g>
<defs>
<clipPath id="clip0_124_490">
<rect width="24" height="24" fill="white"/>
</clipPath>
</defs>
</svg>
