<svg width="123" height="22" viewBox="0 0 123 22" fill="none" xmlns="http://www.w3.org/2000/svg">
<path d="M17.172 18.392C17.2 17.804 17.144 17.188 17.144 16.656C17.144 14.136 17.116 11.336 17.116 8.816C17.116 6.744 17.06 4.672 17.06 2.6C17.06 2.376 17.032 2.152 17.004 1.9C16.976 1.704 16.92 1.48 16.864 1.284C16.78 1.088 16.668 0.947999 16.528 0.807999C16.332 0.64 16.136 0.528 15.884 0.5C15.66 0.471999 15.436 0.443999 15.156 0.443999C13.952 0.471999 12.776 2.404 12.244 3.272C11.012 5.316 10.368 6.296 9.584 7.5C9.444 7.78 8.968 8.48 8.772 8.704C8.1 7.78 7.372 6.436 6.392 4.868C5.944 4.14 5.132 2.768 4.544 2.096C4.068 1.592 3.564 0.64 2.808 0.5C2.584 0.471999 2.332 0.443999 2.08 0.443999C1.772 0.443999 1.464 0.528 1.184 0.695999C0.904 0.863999 0.736 1.088 0.596 1.368C0.456 1.704 0.344 2.068 0.344 2.46C0.232 4.028 0.176 5.624 0.176 7.248V11L0.148 15.312L0.12 17.496C0.12 18 0.148 18.504 0.176 19.008C0.232 19.484 0.484 20.128 0.96 20.436C2.5 21.248 3.76 20.156 3.76 18.896C3.872 18.868 3.9 7.108 3.928 6.968C5.132 9.208 6.28 10.72 7.176 11.84C7.512 12.26 8.128 12.96 8.744 12.904C9.808 12.82 10.452 12.064 13.364 7.22C13.42 8.452 13.392 8.536 13.392 8.648C13.42 9.964 13.42 9.852 13.42 11.056L13.448 15.34V17.524C13.476 18.504 13.336 19.82 14.372 20.464C14.792 20.66 15.268 20.744 15.8 20.576C16.108 20.548 16.332 20.436 16.528 20.268C16.668 20.156 16.808 19.96 16.892 19.764C17.06 19.344 17.144 18.84 17.172 18.392ZM22.728 8.62C21.356 9.292 20.264 10.524 19.732 12.54C18.92 15.592 19.844 19.092 23.036 19.932C24.268 20.268 25.276 20.324 26.48 20.184C27.88 19.988 28.832 19.4 29.7 18.28C30.204 19.092 31.016 20.324 32.164 20.1C33.116 19.932 33.424 18.98 33.228 18.112C32.808 16.292 31.604 14.92 31.324 13.016C31.1 11.616 30.624 10.468 29.644 9.488C27.74 7.64 24.996 7.472 22.728 8.62ZM23.428 11.896C24.492 10.86 26.816 10.72 27.684 12.148C28.888 14.08 27.684 17.272 25.444 17.132C24.464 17.076 23.456 16.684 23.092 16.152C22.252 14.948 22.364 12.904 23.428 11.896ZM35.5855 14.584C35.5575 16.068 35.6135 18.224 35.7255 19.344C35.8375 19.932 36.4255 20.716 37.0975 20.744C39.5895 20.912 39.4775 18.308 39.4495 16.292V12.26C39.4495 12.26 40.9615 9.992 43.4535 10.356C43.8455 10.44 44.5175 10.776 44.9095 10.86C45.6375 11.056 46.3095 11.252 46.8135 10.328C47.5135 9.012 45.8615 7.808 44.6855 7.36C43.7615 7.052 43.0615 7.08 42.1375 7.136C41.9695 7.136 39.9815 7.444 39.3375 8.62C39.3095 7.444 39.2255 6.352 37.6575 6.324C36.9295 6.296 36.2015 6.492 35.9215 7.164C35.5575 8.032 35.5855 9.6 35.5855 10.496V14.584ZM60.7374 13.744C60.7934 11.812 60.8494 9.152 60.4294 7.948C60.0094 6.632 57.6854 6.716 57.3214 8.032C57.0134 9.012 57.1814 11.896 57.1814 13.66C57.1814 15.704 56.9574 16.712 56.1174 16.964C52.4774 18.028 52.8134 14.136 52.7014 11.588C52.6454 10.72 52.7014 9.6 52.5894 8.732C52.3934 7.108 51.3014 6.576 50.1814 7.164C49.1734 7.696 49.3414 9.32 49.3134 10.3C49.2294 11.56 49.2294 12.82 49.3134 14.108C49.3974 16.068 49.6774 18.756 51.4974 19.848C53.2894 20.968 56.1174 21.108 58.2174 20.1C60.6254 18.98 60.6254 16.18 60.7374 13.744ZM78.8155 13.884C78.7595 12.596 78.7875 11 78.2275 9.824C77.4155 8.06 75.3435 7.248 73.5515 7.92C73.0195 8.144 72.5155 8.452 72.1235 8.844C71.3115 7.892 70.1635 7.528 68.8195 7.78C67.7555 7.976 67.2515 8.62 66.8315 9.544C66.7755 8.424 66.7475 6.94 65.3755 6.912C64.7875 6.884 64.1435 7.024 63.8915 7.724C63.5835 8.536 63.6675 9.628 63.6955 10.496V14.528C63.6675 16.068 63.7235 18.588 63.9755 19.4C64.3395 20.66 66.5515 20.604 66.9435 19.456C67.3355 18.392 67.2235 16.572 67.2235 14.164C67.2235 13.184 67.1395 11.952 68.1755 11.448C68.6795 11.196 69.6595 11.336 69.9395 11.868C70.1635 12.344 70.1355 13.324 70.1635 13.856C70.2475 14.724 70.1635 15.648 70.1635 16.516C70.1635 17.328 70.1635 18 70.2475 18.868C70.3595 20.324 71.5635 20.688 72.4875 20.1C73.2995 19.596 73.0475 18.168 73.1035 17.216C73.1315 16.04 73.1315 15.032 73.1035 13.828C73.0755 13.38 73.1035 12.848 73.1035 12.372C73.2995 11.168 74.4475 10.832 75.0915 11.42C75.5395 11.784 75.5955 12.904 75.5955 13.604C75.5675 15.004 75.5955 15.648 75.5955 16.488C75.5955 17.3 75.6235 18.196 75.6795 19.064C75.7635 20.52 77.2195 20.688 78.1435 20.1C78.9275 19.596 78.7875 18.196 78.8155 17.272C78.8715 16.096 78.8715 15.088 78.8155 13.884ZM84.3882 8.62C83.0162 9.292 81.9242 10.524 81.3922 12.54C80.5802 15.592 81.5042 19.092 84.6962 19.932C85.9282 20.268 86.9362 20.324 88.1402 20.184C89.5402 19.988 90.4922 19.4 91.3602 18.28C91.8642 19.092 92.6762 20.324 93.8242 20.1C94.7762 19.932 95.0842 18.98 94.8882 18.112C94.4682 16.292 93.2642 14.92 92.9842 13.016C92.7602 11.616 92.2842 10.468 91.3042 9.488C89.4002 7.64 86.6562 7.472 84.3882 8.62ZM85.0882 11.896C86.1522 10.86 88.4762 10.72 89.3442 12.148C90.5482 14.08 89.3442 17.272 87.1042 17.132C86.1242 17.076 85.1162 16.684 84.7522 16.152C83.9122 14.948 84.0242 12.904 85.0882 11.896ZM97.2457 14.584C97.2177 16.068 97.2737 18.224 97.3857 19.344C97.4977 19.932 98.0857 20.716 98.7577 20.744C101.25 20.912 101.138 18.308 101.11 16.292V12.26C101.11 12.26 102.622 9.992 105.114 10.356C105.506 10.44 106.178 10.776 106.57 10.86C107.298 11.056 107.97 11.252 108.474 10.328C109.174 9.012 107.522 7.808 106.346 7.36C105.422 7.052 104.722 7.08 103.798 7.136C103.63 7.136 101.642 7.444 100.998 8.62C100.97 7.444 100.886 6.352 99.3177 6.324C98.5897 6.296 97.8617 6.492 97.5817 7.164C97.2177 8.032 97.2457 9.6 97.2457 10.496V14.584ZM122.398 13.744C122.454 11.812 122.51 9.152 122.09 7.948C121.67 6.632 119.346 6.716 118.982 8.032C118.674 9.012 118.842 11.896 118.842 13.66C118.842 15.704 118.618 16.712 117.778 16.964C114.138 18.028 114.474 14.136 114.362 11.588C114.306 10.72 114.362 9.6 114.25 8.732C114.054 7.108 112.962 6.576 111.842 7.164C110.834 7.696 111.002 9.32 110.974 10.3C110.89 11.56 110.89 12.82 110.974 14.108C111.058 16.068 111.338 18.756 113.158 19.848C114.95 20.968 117.778 21.108 119.878 20.1C122.286 18.98 122.286 16.18 122.398 13.744Z" fill="black"/>
</svg>
