<svg width="75" height="75" viewBox="0 0 75 75" fill="none" xmlns="http://www.w3.org/2000/svg">
<path d="M61.3359 28.9922L21.0938 5.74219C19.9434 5.06161 18.6334 4.69772 17.2969 4.6875C15.1958 4.6875 13.1809 5.52212 11.6953 7.00777C10.2096 8.4934 9.375 10.5084 9.375 12.6094V62.5078C9.37526 63.902 9.74902 65.2708 10.4574 66.4717C11.1658 67.6726 12.1829 68.6618 13.403 69.3365C14.6232 70.011 16.0018 70.3466 17.3955 70.308C18.7893 70.2694 20.1472 69.8582 21.3281 69.1172L61.6172 43.6641C62.8699 42.8801 63.8982 41.785 64.6018 40.4853C65.3054 39.1857 65.6603 37.726 65.632 36.2484C65.6036 34.7708 65.193 33.3259 64.4401 32.0541C63.6873 30.7825 62.6178 29.7275 61.3359 28.9922Z" fill="black"/>
</svg>
