<svg width="75" height="75" viewBox="0 0 75 75" fill="none" xmlns="http://www.w3.org/2000/svg">
<g clip-path="url(#clip0_2_220)">
<path d="M47.8452 27.1725C46.875 27.1725 46.0887 27.9589 46.0887 28.929V62.1258C46.0887 63.0952 46.875 63.8823 47.8452 63.8823C48.8153 63.8823 49.6015 63.0952 49.6015 62.1258V28.929C49.6015 27.9589 48.8153 27.1725 47.8452 27.1725Z" fill="black"/>
<path d="M27.1193 27.1725C26.1491 27.1725 25.3628 27.9589 25.3628 28.929V62.1258C25.3628 63.0952 26.1491 63.8823 27.1193 63.8823C28.0895 63.8823 28.8756 63.0952 28.8756 62.1258V28.929C28.8756 27.9589 28.0895 27.1725 27.1193 27.1725Z" fill="black"/>
<path d="M12.0139 22.328V65.6029C12.0139 68.1606 12.9518 70.5627 14.5902 72.2862C16.2211 74.0146 18.4908 74.9956 20.866 74.9998H54.0983C56.4743 74.9956 58.7439 74.0146 60.3741 72.2862C62.0126 70.5627 62.9505 68.1606 62.9505 65.6029V22.328C66.2075 21.4634 68.3179 18.317 67.8822 14.9749C67.4458 11.6336 64.5992 9.13414 61.229 9.13345H52.2362V6.93791C52.2465 5.09159 51.5165 3.31869 50.2095 2.01439C48.9025 0.710795 47.1268 -0.0151078 45.2805 -1.33578e-05H29.6839C27.8376 -0.0151078 26.0619 0.710795 24.7549 2.01439C23.4479 3.31869 22.7179 5.09159 22.7281 6.93791V9.13345H13.7353C10.3652 9.13414 7.51852 11.6336 7.08215 14.9749C6.64647 18.317 8.75694 21.4634 12.0139 22.328ZM54.0983 71.4868H20.866C17.8629 71.4868 15.5268 68.9071 15.5268 65.6029V22.4824H59.4377V65.6029C59.4377 68.9071 57.1014 71.4868 54.0983 71.4868ZM26.2409 6.93791C26.2294 6.02332 26.5888 5.14305 27.2379 4.49742C27.8863 3.85179 28.7687 3.49708 29.6839 3.51286H45.2805C46.1958 3.49708 47.0781 3.85179 47.7264 4.49742C48.3755 5.14236 48.7351 6.02332 48.7234 6.93791V9.13345H26.2409V6.93791ZM13.7353 12.6463H61.229C62.9751 12.6463 64.3906 14.0618 64.3906 15.8078C64.3906 17.5541 62.9751 18.9695 61.229 18.9695H13.7353C11.9892 18.9695 10.5737 17.5541 10.5737 15.8078C10.5737 14.0618 11.9892 12.6463 13.7353 12.6463Z" fill="black"/>
<path d="M37.4822 27.1725C36.512 27.1725 35.7258 27.9589 35.7258 28.929V62.1258C35.7258 63.0952 36.512 63.8823 37.4822 63.8823C38.4523 63.8823 39.2387 63.0952 39.2387 62.1258V28.929C39.2387 27.9589 38.4523 27.1725 37.4822 27.1725Z" fill="black"/>
</g>
<defs>
<clipPath id="clip0_2_220">
<rect width="75" height="75" fill="white"/>
</clipPath>
</defs>
</svg>
