<svg width="25" height="25" viewBox="0 0 25 25" fill="none" xmlns="http://www.w3.org/2000/svg">
<g clip-path="url(#clip0_1_11)">
<path d="M24.7136 11.8087C24.7133 11.8084 24.713 11.8081 24.7127 11.8078L19.61 6.72968C19.2277 6.34926 18.6094 6.35068 18.2289 6.733C17.8484 7.11528 17.8499 7.73359 18.2321 8.11406L21.6581 11.5234H0.976562C0.437207 11.5234 0 11.9606 0 12.5C0 13.0394 0.437207 13.4766 0.976562 13.4766H21.6581L18.2322 16.8859C17.8499 17.2664 17.8484 17.8847 18.2289 18.267C18.6094 18.6494 19.2278 18.6507 19.61 18.2703L24.7127 13.1922C24.713 13.1919 24.7133 13.1915 24.7136 13.1913C25.0961 12.8095 25.0949 12.1892 24.7136 11.8087Z" fill="black"/>
</g>
<defs>
<clipPath id="clip0_1_11">
<rect width="25" height="25" fill="white"/>
</clipPath>
</defs>
</svg>
