<svg width="75" height="75" viewBox="0 0 75 75" fill="none" xmlns="http://www.w3.org/2000/svg">
<g clip-path="url(#clip0_1_17)">
<path d="M74.1407 35.4262C74.1398 35.4253 74.1391 35.4243 74.1381 35.4234L58.8299 20.1891C57.6831 19.0478 55.8281 19.052 54.6866 20.199C53.5452 21.3458 53.5496 23.2008 54.6964 24.3422L64.9743 34.5703H2.92969C1.31162 34.5703 0 35.8819 0 37.5C0 39.1181 1.31162 40.4297 2.92969 40.4297H64.9742L54.6965 50.6578C53.5497 51.7992 53.5453 53.6541 54.6867 54.801C55.8283 55.9481 57.6833 55.952 58.83 54.8109L74.1382 39.5766C74.1391 39.5757 74.1398 39.5746 74.1409 39.5738C75.2883 38.4286 75.2846 36.5676 74.1407 35.4262Z" fill="black"/>
</g>
<defs>
<clipPath id="clip0_1_17">
<rect width="75" height="75" fill="white"/>
</clipPath>
</defs>
</svg>
