<svg width="512" height="512" viewBox="0 0 512 512" fill="none" xmlns="http://www.w3.org/2000/svg">
<path d="M134.251 484.416C130.251 480.415 128.005 474.99 128.005 469.333C128.005 463.676 130.251 458.251 134.251 454.251L332.501 256L134.251 57.7493C130.365 53.7258 128.214 48.3369 128.263 42.7434C128.312 37.1499 130.555 31.7992 134.511 27.8438C138.466 23.8885 143.817 21.6449 149.41 21.5963C155.004 21.5477 160.392 23.6979 164.416 27.584L377.749 240.917C381.749 244.918 383.995 250.343 383.995 256C383.995 261.657 381.749 267.082 377.749 271.083L164.416 484.416C160.415 488.415 154.99 490.662 149.333 490.662C143.676 490.662 138.251 488.415 134.251 484.416V484.416Z" fill="black"/>
</svg>
