<svg width="50" height="50" viewBox="0 0 50 50" fill="none" xmlns="http://www.w3.org/2000/svg">
<path d="M39.1223 0H10.8777C8.38858 0 6.27454 2.00759 6.27454 4.60321V46.3674C6.28186 49.6619 10.3059 51.2077 12.5936 48.8951L23.3596 38.1321C24.2223 37.232 25.7777 37.232 26.6404 38.1321L37.4065 48.8951C39.6951 51.2086 43.7187 49.6604 43.7255 46.3674V4.60321C43.7255 2.00759 41.6114 0 39.1223 0ZM40.7955 46.3675C40.7919 47.065 39.9248 47.2952 39.4763 46.8215C37.324 44.666 31.1863 38.5301 28.7142 36.0624C26.7693 34.0285 23.2335 34.0279 21.2897 36.0585C19.5818 37.7631 16.2391 41.105 13.6038 43.7394L10.5382 46.8036C10.0964 47.2724 9.21853 47.1159 9.20437 46.394V4.60321C9.20437 3.66739 9.9629 2.92993 10.8777 2.92993H39.1222C40.0356 2.92993 40.7955 3.66622 40.7955 4.60321V46.3675Z" fill="black"/>
</svg>
