<svg width="75" height="75" viewBox="0 0 75 75" fill="none" xmlns="http://www.w3.org/2000/svg">
<path d="M58.6834 0H16.3166C12.5829 0 9.4118 3.01138 9.4118 6.90482V69.5511C9.42279 74.4929 15.4588 76.8116 18.8903 73.3427L35.0394 57.1982C36.3334 55.848 38.6666 55.848 39.9607 57.1982L56.1097 73.3427C59.5427 76.8129 65.578 74.4907 65.5882 69.5511V6.90482C65.5882 3.01138 62.4171 0 58.6834 0ZM61.1933 69.5512C61.1879 70.5976 59.8872 70.9428 59.2144 70.2322C55.986 66.999 46.7795 57.7951 43.0712 54.0936C40.154 51.0428 34.8503 51.0419 31.9345 54.0877C29.3728 56.6446 24.3586 61.6575 20.4057 65.609L15.8073 70.2054C15.1446 70.9085 13.8278 70.6739 13.8066 69.5911V6.90482C13.8066 5.50109 14.9443 4.3949 16.3166 4.3949H58.6833C60.0535 4.3949 61.1933 5.49933 61.1933 6.90482V69.5512Z" fill="black"/>
</svg>
