<svg width="75" height="75" viewBox="0 0 75 75" fill="none" xmlns="http://www.w3.org/2000/svg">
<path d="M30.1852 60.3444C36.8889 60.3445 43.4007 58.108 48.6894 53.9887L68.6417 73.9411C70.1322 75.3806 72.5073 75.3393 73.9468 73.8488C75.351 72.3948 75.351 70.0899 73.9468 68.636L53.9945 48.6837C64.216 35.5257 61.8358 16.5728 48.6778 6.3513C35.5199 -3.87028 16.5673 -1.49003 6.34563 11.6679C-3.87596 24.8259 -1.49571 43.7786 11.6622 54.0003C16.9595 58.1155 23.4772 60.3478 30.1852 60.3444ZM14.1536 14.1478C23.0077 5.29353 37.3631 5.29337 46.2173 14.1475C55.0716 23.0016 55.0717 37.3569 46.2176 46.2111C37.3635 55.0652 23.0082 55.0655 14.154 46.2114C14.1538 46.2113 14.1538 46.2113 14.1536 46.2111C5.29957 37.4215 5.24741 23.1185 14.037 14.2645C14.0758 14.2255 14.1146 14.1866 14.1536 14.1478Z" fill="black"/>
</svg>
