<svg width="50" height="50" viewBox="0 0 50 50" fill="none" xmlns="http://www.w3.org/2000/svg">
<g clip-path="url(#clip0_2_214)">
<path d="M31.8968 18.1151C31.25 18.1151 30.7258 18.6393 30.7258 19.286V41.4172C30.7258 42.0635 31.25 42.5882 31.8968 42.5882C32.5435 42.5882 33.0677 42.0635 33.0677 41.4172V19.286C33.0677 18.6393 32.5435 18.1151 31.8968 18.1151Z" fill="black"/>
<path d="M18.0795 18.1151C17.4327 18.1151 16.9085 18.6393 16.9085 19.286V41.4172C16.9085 42.0635 17.4327 42.5882 18.0795 42.5882C18.7263 42.5882 19.2504 42.0635 19.2504 41.4172V19.286C19.2504 18.6393 18.7263 18.1151 18.0795 18.1151Z" fill="black"/>
<path d="M8.00924 14.8854V43.7353C8.00924 45.4405 8.63451 47.0418 9.7268 48.1908C10.8141 49.3431 12.3271 49.9971 13.9106 49.9999H36.0655C37.6495 49.9971 39.1626 49.3431 40.2494 48.1908C41.3417 47.0418 41.967 45.4405 41.967 43.7353V14.8854C44.1383 14.309 45.5452 12.2113 45.2548 9.98332C44.9639 7.75579 43.0661 6.08946 40.8193 6.08901H34.8241V4.62531C34.831 3.39443 34.3443 2.2125 33.4729 1.34297C32.6017 0.473904 31.4179 -0.0100312 30.187 3.17849e-05H19.7893C18.5584 -0.0100312 17.3746 0.473904 16.5032 1.34297C15.6319 2.2125 15.1452 3.39443 15.152 4.62531V6.08901H9.15686C6.9101 6.08946 5.01232 7.75579 4.72142 9.98332C4.43096 12.2113 5.83794 14.309 8.00924 14.8854ZM36.0655 47.6579H13.9106C11.9086 47.6579 10.3512 45.9381 10.3512 43.7353V14.9883H39.6251V43.7353C39.6251 45.9381 38.0676 47.6579 36.0655 47.6579ZM17.4939 4.62531C17.4862 4.01559 17.7259 3.42874 18.1586 2.99832C18.5908 2.5679 19.1791 2.33143 19.7893 2.34194H30.187C30.7972 2.33143 31.3854 2.5679 31.8176 2.99832C32.2503 3.42828 32.49 4.01559 32.4822 4.62531V6.08901H17.4939V4.62531ZM9.15686 8.43092H40.8193C41.9834 8.43092 42.927 9.37454 42.927 10.5386C42.927 11.7028 41.9834 12.6464 40.8193 12.6464H9.15686C7.99277 12.6464 7.04914 11.7028 7.04914 10.5386C7.04914 9.37454 7.99277 8.43092 9.15686 8.43092Z" fill="black"/>
<path d="M24.9881 18.1151C24.3413 18.1151 23.8172 18.6393 23.8172 19.286V41.4172C23.8172 42.0635 24.3413 42.5882 24.9881 42.5882C25.6349 42.5882 26.1591 42.0635 26.1591 41.4172V19.286C26.1591 18.6393 25.6349 18.1151 24.9881 18.1151Z" fill="black"/>
</g>
<defs>
<clipPath id="clip0_2_214">
<rect width="50" height="50" fill="white"/>
</clipPath>
</defs>
</svg>
