<svg width="25" height="25" viewBox="0 0 25 25" fill="none" xmlns="http://www.w3.org/2000/svg">
<g clip-path="url(#clip0_2_208)">
<path d="M15.9484 9.05756C15.625 9.05756 15.3629 9.31967 15.3629 9.64305V20.7086C15.3629 21.0318 15.625 21.2941 15.9484 21.2941C16.2718 21.2941 16.5339 21.0318 16.5339 20.7086V9.64305C16.5339 9.31967 16.2718 9.05756 15.9484 9.05756Z" fill="black"/>
<path d="M9.03978 9.05756C8.71639 9.05756 8.45428 9.31967 8.45428 9.64305V20.7086C8.45428 21.0318 8.71639 21.2941 9.03978 21.2941C9.36317 21.2941 9.62523 21.0318 9.62523 20.7086V9.64305C9.62523 9.31967 9.36317 9.05756 9.03978 9.05756Z" fill="black"/>
<path d="M4.00465 7.44269V21.8676C4.00465 22.7202 4.31729 23.5209 4.86343 24.0954C5.40706 24.6715 6.1636 24.9985 6.95535 25H18.0328C18.8248 24.9985 19.5813 24.6715 20.1247 24.0954C20.6709 23.5209 20.9835 22.7202 20.9835 21.8676V7.44269C22.0692 7.1545 22.7726 6.10567 22.6274 4.99166C22.482 3.8779 21.5331 3.04473 20.4097 3.0445H17.4121V2.31266C17.4155 1.69722 17.1722 1.10625 16.7365 0.671485C16.3009 0.236952 15.709 -0.00501558 15.0935 1.58925e-05H9.89466C9.27923 -0.00501558 8.68733 0.236952 8.25164 0.671485C7.816 1.10625 7.57264 1.69722 7.57606 2.31266V3.0445H4.57846C3.45508 3.04473 2.50619 3.8779 2.36074 4.99166C2.21551 6.10567 2.919 7.1545 4.00465 7.44269ZM18.0328 23.829H6.95535C5.95433 23.829 5.17562 22.9691 5.17562 21.8676V7.49415H19.8126V21.8676C19.8126 22.9691 19.0338 23.829 18.0328 23.829ZM8.747 2.31266C8.74315 2.00779 8.86297 1.71437 9.07933 1.49916C9.29544 1.28395 9.58958 1.16571 9.89466 1.17097H15.0935C15.3986 1.16571 15.6927 1.28395 15.9088 1.49916C16.1252 1.71414 16.2451 2.00779 16.2411 2.31266V3.0445H8.747V2.31266ZM4.57846 4.21546H20.4097C20.9917 4.21546 21.4636 4.68727 21.4636 5.2693C21.4636 5.85138 20.9917 6.3232 20.4097 6.3232H4.57846C3.99642 6.3232 3.5246 5.85138 3.5246 5.2693C3.5246 4.68727 3.99642 4.21546 4.57846 4.21546Z" fill="black"/>
<path d="M12.4941 9.05756C12.1707 9.05756 11.9086 9.31967 11.9086 9.64305V20.7086C11.9086 21.0318 12.1707 21.2941 12.4941 21.2941C12.8175 21.2941 13.0796 21.0318 13.0796 20.7086V9.64305C13.0796 9.31967 12.8175 9.05756 12.4941 9.05756Z" fill="black"/>
</g>
<defs>
<clipPath id="clip0_2_208">
<rect width="25" height="25" fill="white"/>
</clipPath>
</defs>
</svg>
