<svg width="50" height="50" viewBox="0 0 50 50" fill="none" xmlns="http://www.w3.org/2000/svg">
<path d="M20.1234 40.2296C24.5926 40.2297 28.9338 38.7387 32.4595 35.9925L45.7611 49.2941C46.7548 50.2537 48.3382 50.2262 49.2978 49.2325C50.234 48.2632 50.234 46.7266 49.2978 45.7574L35.9963 32.4558C42.8106 23.6838 41.2238 11.0486 32.4518 4.23422C23.6799 -2.58017 11.0448 -0.993331 4.23038 7.77862C-2.58401 16.5506 -0.997179 29.1858 7.77478 36.0002C11.3063 38.7437 15.6514 40.2319 20.1234 40.2296ZM9.43572 9.43187C15.3385 3.52904 24.9087 3.52893 30.8115 9.43166C36.7143 15.3344 36.7144 24.9046 30.8117 30.8074C24.909 36.7102 15.3387 36.7104 9.43594 30.8076C9.43583 30.8075 9.43583 30.8075 9.43572 30.8074C3.53301 24.9477 3.49823 15.4123 9.35794 9.50966C9.38383 9.48366 9.40973 9.45776 9.43572 9.43187Z" fill="black"/>
</svg>
