<svg width="25" height="25" viewBox="0 0 25 25" fill="none" xmlns="http://www.w3.org/2000/svg">
<path d="M10.0617 20.1148C12.2963 20.1148 14.4669 19.3693 16.2298 17.9962L22.8806 24.647C23.3774 25.1268 24.1691 25.1131 24.6489 24.6162C25.117 24.1316 25.117 23.3633 24.6489 22.8786L17.9981 16.2279C21.4053 11.8419 20.6119 5.52425 16.2259 2.11708C11.8399 -1.29011 5.5224 -0.496696 2.11519 3.88928C-1.29201 8.27528 -0.49859 14.5929 3.88739 18.0001C5.65316 19.3718 7.82572 20.1159 10.0617 20.1148ZM4.71786 4.71591C7.66923 1.76449 12.4543 1.76444 15.4058 4.7158C18.3572 7.66717 18.3572 12.4523 15.4058 15.4037C12.4545 18.3551 7.66937 18.3552 4.71797 15.4038C4.71791 15.4037 4.71791 15.4037 4.71786 15.4037C1.7665 12.4738 1.74912 7.70614 4.67897 4.7548C4.69191 4.7418 4.70486 4.72885 4.71786 4.71591Z" fill="black"/>
</svg>
