<svg width="25" height="25" viewBox="0 0 25 25" fill="none" xmlns="http://www.w3.org/2000/svg">
<path d="M22.6573 11.3281H22.6562C22.5023 11.3283 22.35 11.3587 22.2078 11.4177C22.0657 11.4767 21.9366 11.5632 21.8278 11.6721C21.7191 11.781 21.6329 11.9102 21.5741 12.0525C21.5154 12.1947 21.4852 12.3471 21.4853 12.501C21.4839 14.144 21.0321 15.755 20.1791 17.1592C19.3261 18.5633 18.1045 19.7068 16.6472 20.4653C15.1898 21.2238 13.5524 21.5683 11.913 21.4614C10.2735 21.3545 8.69476 20.8002 7.34826 19.8588C3.29064 17.0176 2.30095 11.4049 5.14216 7.34727C7.98337 3.2896 13.5961 2.2998 17.6537 5.14111C18.2676 5.56983 18.8255 6.07356 19.3145 6.64062H16.0166C15.7058 6.64063 15.4077 6.76409 15.188 6.98386C14.9682 7.20363 14.8447 7.5017 14.8447 7.8125C14.8447 8.1233 14.9682 8.42137 15.188 8.64114C15.4077 8.86091 15.7058 8.98437 16.0166 8.98438H21.4854C21.7962 8.98437 22.0942 8.86091 22.314 8.64114C22.5338 8.42137 22.6572 8.1233 22.6572 7.8125V2.34375C22.6572 2.03295 22.5338 1.73488 22.314 1.51511C22.0942 1.29534 21.7962 1.17188 21.4854 1.17188C21.1746 1.17188 20.8765 1.29534 20.6567 1.51511C20.437 1.73488 20.3135 2.03295 20.3135 2.34375V4.29526C19.9023 3.90508 19.4626 3.54601 18.9981 3.22105C17.7796 2.36784 16.4049 1.763 14.9527 1.44104C13.5004 1.11909 11.9989 1.08633 10.534 1.34465C9.06907 1.60296 7.66937 2.14728 6.41481 2.94653C5.16025 3.74579 4.07539 4.78432 3.22219 6.00283C1.49906 8.46373 0.824103 11.5083 1.34579 14.4669C1.86748 17.4254 3.54307 20.0556 6.00397 21.7787C7.89867 23.1133 10.1594 23.8298 12.477 23.8302C13.1445 23.8299 13.8107 23.7713 14.468 23.6552C17.0907 23.1925 19.4667 21.8206 21.1786 19.7805C22.8905 17.7403 23.8289 15.1622 23.8291 12.499C23.8288 12.1884 23.7053 11.8906 23.4855 11.671C23.2658 11.4515 22.9679 11.3281 22.6573 11.3281V11.3281Z" fill="black"/>
</svg>
