<svg width="75" height="75" viewBox="0 0 75 75" fill="none" xmlns="http://www.w3.org/2000/svg">
<path d="M67.972 33.9844H67.9687C67.507 33.9848 67.0499 34.0761 66.6235 34.2531C66.1971 34.4302 65.8098 34.6895 65.4836 35.0162C65.1574 35.3429 64.8988 35.7307 64.7225 36.1574C64.5462 36.5841 64.4556 37.0414 64.456 37.5031C64.4516 42.4319 63.0963 47.2651 60.5373 51.4776C57.9783 55.69 54.3136 59.1204 49.9416 61.3959C45.5695 63.6714 40.6573 64.7049 35.739 64.3842C30.8207 64.0634 26.0843 62.4006 22.0448 59.5765C9.87199 51.0529 6.9029 34.2148 15.4265 22.0418C23.9502 9.8688 40.7884 6.89941 52.9613 15.4233C54.8029 16.7095 56.4766 18.2207 57.9435 19.9219H48.0499C47.1175 19.9219 46.2233 20.2923 45.564 20.9516C44.9047 21.6109 44.5343 22.5051 44.5343 23.4375C44.5343 24.3699 44.9047 25.2641 45.564 25.9234C46.2233 26.5827 47.1175 26.9531 48.0499 26.9531H64.4562C65.3886 26.9531 66.2828 26.5827 66.9421 25.9234C67.6014 25.2641 67.9718 24.3699 67.9718 23.4375V7.03125C67.9718 6.09885 67.6014 5.20464 66.9421 4.54533C66.2828 3.88602 65.3886 3.51563 64.4562 3.51562C63.5238 3.51563 62.6296 3.88602 61.9703 4.54533C61.3109 5.20464 60.9406 6.09885 60.9406 7.03125V12.8858C59.7068 11.7152 58.3878 10.638 56.9943 9.66314C53.3387 7.10352 49.2148 5.28899 44.858 4.32313C40.5012 3.35727 35.9968 3.259 31.6021 4.03394C27.2073 4.80888 23.0082 6.44185 19.2445 8.8396C15.4808 11.2374 12.2262 14.353 9.66662 18.0085C4.49725 25.3912 2.47237 34.525 4.03743 43.4007C5.60249 52.2763 10.6293 60.1668 18.012 65.3361C23.6961 69.3398 30.4784 71.4894 37.431 71.4907C39.4335 71.4897 41.4321 71.314 43.404 70.9655C51.2723 69.5775 58.4001 65.4619 63.5358 59.3414C68.6715 53.2208 71.4868 45.4867 71.4874 37.4969C71.4866 36.5651 71.1159 35.6717 70.4567 35.013C69.7975 34.3544 68.9038 33.9844 67.972 33.9844V33.9844Z" fill="black"/>
</svg>
