<svg width="50" height="50" viewBox="0 0 50 50" fill="none" xmlns="http://www.w3.org/2000/svg">
<path d="M18.75 1.5625H6.25C5.0068 1.5625 3.81451 2.05636 2.93544 2.93544C2.05636 3.81451 1.5625 5.0068 1.5625 6.25V28.125C1.5625 29.3682 2.05636 30.5605 2.93544 31.4396C3.81451 32.3187 5.0068 32.8125 6.25 32.8125H18.75C19.9932 32.8125 21.1854 32.3187 22.0646 31.4396C22.9437 30.5605 23.4375 29.3682 23.4375 28.125V6.25C23.4375 5.0068 22.9437 3.81451 22.0646 2.93544C21.1854 2.05636 19.9932 1.5625 18.75 1.5625ZM20.3125 28.125C20.3125 28.5394 20.1479 28.9368 19.8549 29.2299C19.5618 29.5229 19.1644 29.6875 18.75 29.6875H6.25C5.8356 29.6875 5.43817 29.5229 5.14515 29.2299C4.85212 28.9368 4.6875 28.5394 4.6875 28.125V6.25C4.6875 5.8356 4.85212 5.43817 5.14515 5.14515C5.43817 4.85212 5.8356 4.6875 6.25 4.6875H18.75C19.1644 4.6875 19.5618 4.85212 19.8549 5.14515C20.1479 5.43817 20.3125 5.8356 20.3125 6.25V28.125Z" fill="black"/>
<path d="M18.75 35.9375H6.25C5.0068 35.9375 3.81451 36.4313 2.93544 37.3104C2.05636 38.1895 1.5625 39.3818 1.5625 40.625V43.75C1.5625 44.9932 2.05636 46.1855 2.93544 47.0646C3.81451 47.9437 5.0068 48.4375 6.25 48.4375H18.75C19.9932 48.4375 21.1854 47.9437 22.0646 47.0646C22.9437 46.1855 23.4375 44.9932 23.4375 43.75V40.625C23.4375 39.3818 22.9437 38.1895 22.0646 37.3104C21.1854 36.4313 19.9932 35.9375 18.75 35.9375ZM20.3125 43.75C20.3125 44.1644 20.1479 44.5618 19.8549 44.8549C19.5618 45.1479 19.1644 45.3125 18.75 45.3125H6.25C5.8356 45.3125 5.43817 45.1479 5.14515 44.8549C4.85212 44.5618 4.6875 44.1644 4.6875 43.75V40.625C4.6875 40.2106 4.85212 39.8132 5.14515 39.5201C5.43817 39.2271 5.8356 39.0625 6.25 39.0625H18.75C19.1644 39.0625 19.5618 39.2271 19.8549 39.5201C20.1479 39.8132 20.3125 40.2106 20.3125 40.625V43.75Z" fill="black"/>
<path d="M43.75 17.1875H31.25C30.0068 17.1875 28.8145 17.6813 27.9354 18.5604C27.0563 19.4396 26.5625 20.6318 26.5625 21.875V43.75C26.5625 44.9932 27.0563 46.1855 27.9354 47.0646C28.8145 47.9437 30.0068 48.4375 31.25 48.4375H43.75C44.9932 48.4375 46.1855 47.9437 47.0646 47.0646C47.9437 46.1855 48.4375 44.9932 48.4375 43.75V21.875C48.4375 20.6318 47.9437 19.4396 47.0646 18.5604C46.1855 17.6813 44.9932 17.1875 43.75 17.1875ZM45.3125 43.75C45.3125 44.1644 45.1479 44.5618 44.8549 44.8549C44.5618 45.1479 44.1644 45.3125 43.75 45.3125H31.25C30.8356 45.3125 30.4382 45.1479 30.1451 44.8549C29.8521 44.5618 29.6875 44.1644 29.6875 43.75V21.875C29.6875 21.4606 29.8521 21.0632 30.1451 20.7701C30.4382 20.4771 30.8356 20.3125 31.25 20.3125H43.75C44.1644 20.3125 44.5618 20.4771 44.8549 20.7701C45.1479 21.0632 45.3125 21.4606 45.3125 21.875V43.75Z" fill="black"/>
<path d="M43.75 1.5625H31.25C30.0068 1.5625 28.8145 2.05636 27.9354 2.93544C27.0563 3.81451 26.5625 5.0068 26.5625 6.25V9.375C26.5625 10.6182 27.0563 11.8104 27.9354 12.6896C28.8145 13.5687 30.0068 14.0625 31.25 14.0625H43.75C44.9932 14.0625 46.1855 13.5687 47.0646 12.6896C47.9437 11.8104 48.4375 10.6182 48.4375 9.375V6.25C48.4375 5.0068 47.9437 3.81451 47.0646 2.93544C46.1855 2.05636 44.9932 1.5625 43.75 1.5625ZM45.3125 9.375C45.3125 9.78936 45.1479 10.1868 44.8549 10.4799C44.5618 10.7729 44.1644 10.9375 43.75 10.9375H31.25C30.8356 10.9375 30.4382 10.7729 30.1451 10.4799C29.8521 10.1868 29.6875 9.78936 29.6875 9.375V6.25C29.6875 5.8356 29.8521 5.43817 30.1451 5.14515C30.4382 4.85212 30.8356 4.6875 31.25 4.6875H43.75C44.1644 4.6875 44.5618 4.85212 44.8549 5.14515C45.1479 5.43817 45.3125 5.8356 45.3125 6.25V9.375Z" fill="black"/>
</svg>
