<svg width="75" height="75" viewBox="0 0 75 75" fill="none" xmlns="http://www.w3.org/2000/svg">
<path d="M28.125 2.34375H9.375C7.5102 2.34375 5.72177 3.08454 4.40316 4.40316C3.08454 5.72177 2.34375 7.5102 2.34375 9.375V42.1875C2.34375 44.0522 3.08454 45.8407 4.40316 47.1593C5.72177 48.478 7.5102 49.2188 9.375 49.2188H28.125C29.9897 49.2188 31.7782 48.478 33.0968 47.1593C34.4155 45.8407 35.1562 44.0522 35.1562 42.1875V9.375C35.1562 7.5102 34.4155 5.72177 33.0968 4.40316C31.7782 3.08454 29.9897 2.34375 28.125 2.34375ZM30.4688 42.1875C30.4688 42.809 30.2218 43.4052 29.7823 43.8448C29.3427 44.2843 28.7465 44.5312 28.125 44.5312H9.375C8.75339 44.5312 8.15726 44.2843 7.71772 43.8448C7.27818 43.4052 7.03125 42.809 7.03125 42.1875V9.375C7.03125 8.75339 7.27818 8.15726 7.71772 7.71772C8.15726 7.27818 8.75339 7.03125 9.375 7.03125H28.125C28.7465 7.03125 29.3427 7.27818 29.7823 7.71772C30.2218 8.15726 30.4688 8.75339 30.4688 9.375V42.1875Z" fill="black"/>
<path d="M28.125 53.9062H9.375C7.5102 53.9062 5.72177 54.647 4.40316 55.9657C3.08454 57.2843 2.34375 59.0728 2.34375 60.9375V65.625C2.34375 67.4897 3.08454 69.2782 4.40316 70.5968C5.72177 71.9155 7.5102 72.6562 9.375 72.6562H28.125C29.9897 72.6562 31.7782 71.9155 33.0968 70.5968C34.4155 69.2782 35.1562 67.4897 35.1562 65.625V60.9375C35.1562 59.0728 34.4155 57.2843 33.0968 55.9657C31.7782 54.647 29.9897 53.9062 28.125 53.9062ZM30.4688 65.625C30.4688 66.2465 30.2218 66.8427 29.7823 67.2823C29.3427 67.7218 28.7465 67.9688 28.125 67.9688H9.375C8.75339 67.9688 8.15726 67.7218 7.71772 67.2823C7.27818 66.8427 7.03125 66.2465 7.03125 65.625V60.9375C7.03125 60.316 7.27818 59.7198 7.71772 59.2802C8.15726 58.8407 8.75339 58.5938 9.375 58.5938H28.125C28.7465 58.5938 29.3427 58.8407 29.7823 59.2802C30.2218 59.7198 30.4688 60.316 30.4688 60.9375V65.625Z" fill="black"/>
<path d="M65.625 25.7812H46.875C45.0103 25.7812 43.2218 26.522 41.9032 27.8407C40.5845 29.1593 39.8438 30.9478 39.8438 32.8125V65.625C39.8438 67.4897 40.5845 69.2782 41.9032 70.5968C43.2218 71.9155 45.0103 72.6562 46.875 72.6562H65.625C67.4897 72.6562 69.2782 71.9155 70.5968 70.5968C71.9155 69.2782 72.6562 67.4897 72.6562 65.625V32.8125C72.6562 30.9478 71.9155 29.1593 70.5968 27.8407C69.2782 26.522 67.4897 25.7812 65.625 25.7812ZM67.9688 65.625C67.9688 66.2465 67.7218 66.8427 67.2823 67.2823C66.8427 67.7218 66.2465 67.9688 65.625 67.9688H46.875C46.2535 67.9688 45.6573 67.7218 45.2177 67.2823C44.7782 66.8427 44.5312 66.2465 44.5312 65.625V32.8125C44.5312 32.191 44.7782 31.5948 45.2177 31.1552C45.6573 30.7157 46.2535 30.4688 46.875 30.4688H65.625C66.2465 30.4688 66.8427 30.7157 67.2823 31.1552C67.7218 31.5948 67.9688 32.191 67.9688 32.8125V65.625Z" fill="black"/>
<path d="M65.625 2.34375H46.875C45.0103 2.34375 43.2218 3.08454 41.9032 4.40316C40.5845 5.72177 39.8438 7.5102 39.8438 9.375V14.0625C39.8438 15.9272 40.5845 17.7157 41.9032 19.0343C43.2218 20.353 45.0103 21.0938 46.875 21.0938H65.625C67.4897 21.0938 69.2782 20.353 70.5968 19.0343C71.9155 17.7157 72.6562 15.9272 72.6562 14.0625V9.375C72.6562 7.5102 71.9155 5.72177 70.5968 4.40316C69.2782 3.08454 67.4897 2.34375 65.625 2.34375ZM67.9688 14.0625C67.9688 14.684 67.7218 15.2802 67.2823 15.7198C66.8427 16.1593 66.2465 16.4062 65.625 16.4062H46.875C46.2535 16.4062 45.6573 16.1593 45.2177 15.7198C44.7782 15.2802 44.5312 14.684 44.5312 14.0625V9.375C44.5312 8.75339 44.7782 8.15726 45.2177 7.71772C45.6573 7.27818 46.2535 7.03125 46.875 7.03125H65.625C66.2465 7.03125 66.8427 7.27818 67.2823 7.71772C67.7218 8.15726 67.9688 8.75339 67.9688 9.375V14.0625Z" fill="black"/>
</svg>
