<svg width="50" height="50" viewBox="0 0 50 50" fill="none" xmlns="http://www.w3.org/2000/svg">
<g clip-path="url(#clip0_1_14)">
<path d="M49.4271 23.6175C49.4266 23.6169 49.4261 23.6162 49.4254 23.6156L39.2199 13.4594C38.4554 12.6985 37.2187 12.7014 36.4577 13.466C35.6968 14.2306 35.6997 15.4672 36.4643 16.2281L43.3162 23.0469H1.95312C0.874414 23.0469 0 23.9213 0 25C0 26.0787 0.874414 26.9531 1.95312 26.9531H43.3161L36.4644 33.7719C35.6998 34.5328 35.6969 35.7694 36.4578 36.534C37.2188 37.2987 38.4556 37.3014 39.22 36.5406L49.4255 26.3844C49.4261 26.3838 49.4266 26.3831 49.4272 26.3825C50.1922 25.619 50.1897 24.3784 49.4271 23.6175Z" fill="black"/>
</g>
<defs>
<clipPath id="clip0_1_14">
<rect width="50" height="50" fill="white"/>
</clipPath>
</defs>
</svg>
