<svg width="50" height="50" viewBox="0 0 50 50" fill="none" xmlns="http://www.w3.org/2000/svg">
<g clip-path="url(#clip0_1_130)">
<path d="M48.6509 21.7476C48.6497 21.7465 48.6485 21.7453 48.6474 21.7441L28.2514 1.34888C27.382 0.479126 26.2262 0 24.9967 0C23.7672 0 22.6113 0.478744 21.7416 1.3485L1.35622 21.7335C1.34935 21.7403 1.34249 21.7476 1.33562 21.7545C-0.449655 23.55 -0.446603 26.4633 1.34439 28.2543C2.16264 29.0729 3.24336 29.5472 4.39883 29.5967C4.44575 29.6013 4.49305 29.6036 4.54073 29.6036H5.35364V44.6133C5.35364 47.5834 7.77025 50 10.7411 50H18.7207C19.5294 50 20.1855 49.3442 20.1855 48.5352V36.7676C20.1855 35.4122 21.288 34.3098 22.6434 34.3098H27.35C28.7053 34.3098 29.8077 35.4122 29.8077 36.7676V48.5352C29.8077 49.3442 30.4635 50 31.2726 50H39.2521C42.223 50 44.6396 47.5834 44.6396 44.6133V29.6036H45.3935C46.6226 29.6036 47.7784 29.1248 48.6485 28.2551C50.4415 26.461 50.4422 23.5428 48.6509 21.7476Z" fill="black"/>
</g>
<defs>
<clipPath id="clip0_1_130">
<rect width="50" height="50" fill="white"/>
</clipPath>
</defs>
</svg>
