<svg width="512" height="512" viewBox="0 0 512 512" fill="none" xmlns="http://www.w3.org/2000/svg">
<g clip-path="url(#clip0)">
<path d="M354.284 303.821C415.744 217.034 395.189 96.8592 308.402 35.4138C221.615 -26.0316 101.441 -5.49103 39.9951 81.3107C-21.4503 168.098 -0.909735 288.258 85.892 349.703C147.837 393.559 229.734 396.936 295.071 358.351L437.034 499.462C452.362 515.598 477.865 516.244 494.001 500.916C510.137 485.602 510.783 460.099 495.469 443.963C494.985 443.449 494.515 442.98 494.001 442.495L354.284 303.821ZM197.022 316.976C128.441 316.991 72.8394 261.433 72.7954 192.852C72.7807 124.271 128.338 68.6692 196.934 68.6399C265.427 68.6105 321 124.08 321.132 192.573C321.249 261.169 265.721 316.859 197.11 316.976C197.081 316.976 197.066 316.976 197.022 316.976Z" fill="black"/>
</g>
<defs>
<clipPath id="clip0">
<rect width="512" height="512" fill="white"/>
</clipPath>
</defs>
</svg>
