<svg width="25" height="25" viewBox="0 0 25 25" fill="none" xmlns="http://www.w3.org/2000/svg">
<path d="M24.7285 23.4192L18.0072 16.6978C19.4809 14.9309 20.3702 12.6605 20.3702 10.1851C20.3702 4.56894 15.8012 0 10.1851 0C4.56894 0 0 4.56894 0 10.1851C0 15.8012 4.56894 20.3702 10.1851 20.3702C12.6605 20.3702 14.9309 19.4809 16.6978 18.0072L23.4192 24.7287C23.6 24.9095 23.8371 25 24.0738 25C24.3106 25 24.5477 24.9095 24.7285 24.7287C25.0903 24.3669 25.0903 23.7808 24.7285 23.4192ZM1.85184 10.1851C1.85184 5.59023 5.58975 1.85184 10.1851 1.85184C14.7804 1.85184 18.5184 5.59023 18.5184 10.1851C18.5184 14.7799 14.7804 18.5184 10.1851 18.5184C5.58975 18.5184 1.85184 14.7799 1.85184 10.1851Z" fill="black"/>
</svg>
