<svg width="384" height="320" viewBox="0 0 384 320" fill="none" xmlns="http://www.w3.org/2000/svg">
<path d="M148.968 315.588C155.36 321.676 165.496 321.436 171.584 315.036C177.68 308.636 177.424 298.508 171.032 292.412L48.296 176.004L368 176.004C376.832 176.004 384 168.836 384 160.004C384 151.172 376.832 144.004 368 144.004L48.808 144.004L171.032 27.5883C177.432 21.4923 177.68 11.3643 171.584 4.96429C168.44 1.66829 164.224 0.00430298 160 0.00430298C156.032 0.00430298 152.064 1.46829 148.968 4.42029L9.37601 137.38C3.32801 143.42 0 151.452 0 160.004C0 168.556 3.32801 176.588 9.65601 182.9L148.968 315.588Z" fill="#FD8541"/>
</svg>
