<svg width="25" height="25" viewBox="0 0 25 25" fill="none" xmlns="http://www.w3.org/2000/svg">
<path d="M19.5611 0H5.43887C4.19429 0 3.13727 1.00379 3.13727 2.30161V23.1837C3.14093 24.831 5.15293 25.6039 6.29678 24.4476L11.6798 19.0661C12.1111 18.616 12.8889 18.616 13.3202 19.0661L18.7032 24.4476C19.8476 25.6043 21.8593 24.8302 21.8627 23.1837V2.30161C21.8627 1.00379 20.8057 0 19.5611 0ZM20.3978 23.1837C20.396 23.5325 19.9624 23.6476 19.7381 23.4107C18.662 22.333 15.5932 19.265 14.3571 18.0312C13.3847 17.0143 11.6168 17.014 10.6448 18.0292C9.79092 18.8815 8.11953 20.5525 6.80191 21.8697L5.26909 23.4018C5.0482 23.6362 4.60927 23.558 4.60219 23.197V2.30161C4.60219 1.8337 4.98145 1.46497 5.43887 1.46497H19.5611C20.0178 1.46497 20.3978 1.83311 20.3978 2.30161V23.1837Z" fill="black"/>
</svg>
