<svg width="20" height="20" viewBox="0 0 20 20" fill="none" xmlns="http://www.w3.org/2000/svg">
<path d="M15.6488 0H4.35105C3.35538 0 2.50977 0.803032 2.50977 1.84129V18.547C2.51269 19.8648 4.12229 20.4831 5.03737 19.5581L9.34379 15.2529C9.68883 14.8928 10.3111 14.8928 10.6561 15.2529L14.9625 19.5581C15.878 20.4834 17.4874 19.8642 17.4901 18.547V1.84129C17.4901 0.803032 16.6445 0 15.6488 0ZM16.3182 18.547C16.3167 18.826 15.9699 18.9181 15.7904 18.7286C14.9295 17.8664 12.4745 15.412 11.4856 14.425C10.7077 13.6114 9.29339 13.6112 8.51579 14.4234C7.83269 15.1052 6.49557 16.442 5.44148 17.4958L4.21522 18.7214C4.03851 18.909 3.68737 18.8464 3.6817 18.5576V1.84129C3.6817 1.46696 3.98511 1.17198 4.35105 1.17198H15.6488C16.0142 1.17198 16.3182 1.46649 16.3182 1.84129V18.547Z" fill="black"/>
</svg>
