<svg width="25" height="25" viewBox="0 0 25 25" fill="none" xmlns="http://www.w3.org/2000/svg">
<path d="M4.55467 9.66406L17.9687 1.91406C18.3522 1.6872 18.7888 1.56591 19.2344 1.5625C19.9347 1.5625 20.6063 1.84071 21.1015 2.33592C21.5968 2.83113 21.875 3.50279 21.875 4.20312V20.8359C21.8749 21.3007 21.7503 21.7569 21.5142 22.1572C21.2781 22.5575 20.939 22.8873 20.5323 23.1122C20.1256 23.337 19.666 23.4489 19.2015 23.436C18.7369 23.4231 18.2843 23.2861 17.8906 23.0391L4.46092 14.5547C4.04334 14.2934 3.70059 13.9283 3.46605 13.4951C3.23152 13.0619 3.11321 12.5753 3.12266 12.0828C3.13209 11.5903 3.26897 11.1086 3.51993 10.6847C3.77089 10.2608 4.12738 9.90918 4.55467 9.66406Z" fill="black"/>
</svg>
