<svg width="50" height="50" viewBox="0 0 50 50" fill="none" xmlns="http://www.w3.org/2000/svg">
<path d="M40.8906 19.3281L14.0625 3.82813C13.2956 3.3744 12.4223 3.13182 11.5313 3.125C10.1306 3.125 8.78727 3.68142 7.79685 4.67185C6.80642 5.66227 6.25 7.00558 6.25 8.40625V41.6719C6.25018 42.6014 6.49935 43.5139 6.9716 44.3144C7.44385 45.115 8.12194 45.7745 8.93536 46.2243C9.74879 46.674 10.6679 46.8977 11.597 46.872C12.5262 46.8463 13.4314 46.5722 14.2188 46.0781L41.0781 29.1094C41.9133 28.5867 42.5988 27.8566 43.0679 26.9902C43.5369 26.1238 43.7735 25.1507 43.7547 24.1656C43.7357 23.1806 43.462 22.2173 42.9601 21.3694C42.4582 20.5217 41.7452 19.8184 40.8906 19.3281Z" fill="black"/>
</svg>
