<svg width="25" height="25" viewBox="0 0 25 25" fill="none" xmlns="http://www.w3.org/2000/svg">
<path d="M20.4453 9.66406L7.03125 1.91406C6.6478 1.6872 6.21113 1.56591 5.76563 1.5625C5.06528 1.5625 4.39363 1.84071 3.89842 2.33592C3.40321 2.83113 3.125 3.50279 3.125 4.20312V20.8359C3.12509 21.3007 3.24967 21.7569 3.4858 22.1572C3.72192 22.5575 4.06097 22.8873 4.46768 23.1122C4.87439 23.337 5.33394 23.4489 5.79849 23.436C6.26309 23.4231 6.71572 23.2861 7.10938 23.0391L20.5391 14.5547C20.9566 14.2934 21.2994 13.9283 21.5339 13.4951C21.7685 13.0619 21.8868 12.5753 21.8773 12.0828C21.8679 11.5903 21.731 11.1086 21.48 10.6847C21.2291 10.2608 20.8726 9.90918 20.4453 9.66406Z" fill="black"/>
</svg>
