<svg width="75" height="75" viewBox="0 0 75 75" fill="none" xmlns="http://www.w3.org/2000/svg">
<path d="M13.6641 28.9922L53.9062 5.74219C55.0566 5.06161 56.3666 4.69772 57.7031 4.6875C59.8042 4.6875 61.819 5.52212 63.3047 7.00777C64.7903 8.4934 65.625 10.5084 65.625 12.6094V62.5078C65.6247 63.9021 65.251 65.2708 64.5426 66.4717C63.8342 67.6726 62.817 68.6618 61.597 69.3365C60.3768 70.011 58.9982 70.3466 57.6045 70.308C56.2107 70.2694 54.8528 69.8583 53.6719 69.1172L13.3828 43.6641C12.1301 42.8801 11.1018 41.785 10.3982 40.4854C9.69463 39.1857 9.3397 37.726 9.36803 36.2484C9.39634 34.7708 9.80697 33.3259 10.5599 32.0542C11.3127 30.7825 12.3822 29.7275 13.6641 28.9922Z" fill="black"/>
</svg>
