<svg width="50" height="50" viewBox="0 0 50 50" fill="none" xmlns="http://www.w3.org/2000/svg">
<path d="M9.1094 19.3281L35.9375 3.82813C36.7044 3.3744 37.5778 3.13182 38.4688 3.125C39.8695 3.125 41.2127 3.68142 42.2031 4.67185C43.1936 5.66227 43.75 7.00558 43.75 8.40625V41.6719C43.7498 42.6014 43.5007 43.5139 43.0284 44.3144C42.5562 45.115 41.878 45.7745 41.0647 46.2243C40.2512 46.674 39.3321 46.8977 38.403 46.872C37.4738 46.8463 36.5686 46.5722 35.7813 46.0781L8.9219 29.1094C8.08674 28.5867 7.40123 27.8566 6.93217 26.9902C6.46311 26.1238 6.22649 25.1507 6.24537 24.1656C6.26425 23.1806 6.538 22.2173 7.03992 21.3694C7.54185 20.5217 8.25482 19.8184 9.1094 19.3281Z" fill="black"/>
</svg>
