<svg width="50" height="50" viewBox="0 0 50 50" fill="none" xmlns="http://www.w3.org/2000/svg">
<path d="M45.3146 22.6562H45.3125C45.0047 22.6565 44.7 22.7174 44.4157 22.8354C44.1314 22.9534 43.8732 23.1263 43.6558 23.3441C43.4383 23.562 43.2659 23.8205 43.1483 24.105C43.0308 24.3894 42.9704 24.6943 42.9707 25.0021C42.9678 28.2879 42.0642 31.5101 40.3582 34.3184C38.6522 37.1267 36.2091 39.4136 33.2944 40.9306C30.3797 42.4476 27.1049 43.1366 23.826 42.9228C20.5471 42.7089 17.3896 41.6004 14.6966 39.7177C6.58135 34.0353 4.60196 22.8099 10.2844 14.6945C15.9668 6.5792 27.1923 4.59961 35.3075 10.2822C36.5353 11.1397 37.6511 12.1471 38.629 13.2812H32.0333C31.4117 13.2813 30.8156 13.5282 30.376 13.9677C29.9365 14.4073 29.6896 15.0034 29.6896 15.625C29.6896 16.2466 29.9365 16.8427 30.376 17.2823C30.8156 17.7218 31.4117 17.9687 32.0333 17.9688H42.9708C43.5924 17.9687 44.1885 17.7218 44.6281 17.2823C45.0676 16.8427 45.3146 16.2466 45.3146 15.625V4.6875C45.3146 4.0659 45.0676 3.46976 44.6281 3.03022C44.1885 2.59068 43.5924 2.34375 42.9708 2.34375C42.3492 2.34375 41.7531 2.59068 41.3135 3.03022C40.874 3.46976 40.6271 4.0659 40.6271 4.6875V8.59053C39.8046 7.81016 38.9252 7.09203 37.9962 6.44209C35.5592 4.73568 32.8099 3.52599 29.9054 2.88208C27.0008 2.23818 23.9979 2.17267 21.0681 2.68929C18.1382 3.20592 15.3388 4.29456 12.8297 5.89307C10.3206 7.49157 8.15084 9.56864 6.44444 12.0057C2.99819 16.9275 1.64827 23.0167 2.69164 28.9338C3.73501 34.8509 7.08621 40.1112 12.008 43.5574C15.7974 46.2265 20.319 47.6596 24.954 47.6604C26.289 47.6598 27.6214 47.5427 28.936 47.3104C34.1815 46.385 38.9334 43.6413 42.3572 39.5609C45.781 35.4806 47.6579 30.3245 47.6583 24.9979C47.6578 24.3767 47.4106 23.7811 46.9711 23.342C46.5317 22.9029 45.9359 22.6563 45.3146 22.6562V22.6562Z" fill="black"/>
</svg>
