<svg width="50" height="50" viewBox="0 0 50 50" fill="none" xmlns="http://www.w3.org/2000/svg">
<g clip-path="url(#clip0_274_695)">
<path d="M2.43649 49.9967C1.95356 49.9968 1.48145 49.8536 1.07988 49.5854C0.67831 49.3171 0.365318 48.9358 0.180496 48.4896C-0.00432528 48.0434 -0.052674 47.5525 0.0415658 47.0788C0.135806 46.6052 0.3684 46.1701 0.709929 45.8287L45.8271 0.711504C46.285 0.253591 46.9061 -0.00366211 47.5537 -0.00366211C48.2013 -0.00366211 48.8223 0.253591 49.2802 0.711504C49.7381 1.16942 49.9954 1.79048 49.9954 2.43807C49.9954 3.08565 49.7381 3.70672 49.2802 4.16463L4.16305 49.2818C3.93653 49.5088 3.66739 49.6888 3.37109 49.8115C3.07479 49.9342 2.75718 49.9971 2.43649 49.9967Z" fill="black"/>
<path d="M47.5555 49.9967C47.2348 49.9971 46.9172 49.9342 46.6209 49.8115C46.3246 49.6888 46.0555 49.5088 45.8289 49.2818L0.711748 4.16463C0.253835 3.70672 -0.00341797 3.08565 -0.00341797 2.43807C-0.00341797 1.79048 0.253835 1.16942 0.711748 0.711504C1.16966 0.253591 1.79072 -0.00366211 2.43831 -0.00366211C3.0859 -0.00366211 3.70696 0.253591 4.16487 0.711504L49.2821 45.8287C49.6236 46.1701 49.8562 46.6052 49.9504 47.0788C50.0447 47.5525 49.9963 48.0434 49.8115 48.4896C49.6267 48.9358 49.3137 49.3171 48.9121 49.5854C48.5105 49.8536 48.0384 49.9968 47.5555 49.9967V49.9967Z" fill="black"/>
</g>
<defs>
<clipPath id="clip0_274_695">
<rect width="50" height="50" fill="white"/>
</clipPath>
</defs>
</svg>
