<svg width="512" height="512" viewBox="0 0 512 512" fill="none" xmlns="http://www.w3.org/2000/svg">
<g clip-path="url(#clip0)">
<path d="M462.452 0H49.5484C22.2968 0 0 24.6817 0 54.8483C0 85.0149 22.2968 109.697 49.5484 109.697H462.452C489.703 109.697 512 85.0149 512 54.8483C512 24.6817 489.703 0 462.452 0Z" fill="black"/>
<path d="M462.452 201.198H49.5484C22.2968 201.198 0 225.879 0 256.044C0 286.209 22.2968 310.889 49.5484 310.889H462.452C489.703 310.889 512 286.209 512 256.044C512 225.879 489.703 201.198 462.452 201.198Z" fill="black"/>
<path d="M462.452 402.312H49.5484C22.2968 402.312 0 426.993 0 457.158C0 487.323 22.2968 512.004 49.5484 512.004H462.452C489.703 512.004 512 487.323 512 457.158C512 426.993 489.703 402.312 462.452 402.312Z" fill="black"/>
</g>
<defs>
<clipPath id="clip0">
<rect width="512" height="512" fill="white"/>
</clipPath>
</defs>
</svg>
