<svg width="75" height="75" viewBox="0 0 75 75" fill="none" xmlns="http://www.w3.org/2000/svg">
<path d="M4.55933 18.5292H70.4417C72.9557 18.5292 75 16.4849 75 13.9709C75 11.457 72.9557 9.41162 70.4417 9.41162H4.55933C2.04539 9.41162 0 11.457 0 13.9709C0 16.4849 2.04539 18.5292 4.55933 18.5292Z" fill="black"/>
<path d="M70.4417 32.9407H4.55933C2.04539 32.9407 0 34.986 0 37.5C0 40.014 2.04539 42.0583 4.55933 42.0583H70.4417C72.9557 42.0583 75 40.014 75 37.5C75 34.986 72.9557 32.9407 70.4417 32.9407Z" fill="black"/>
<path d="M70.4417 56.4697H4.55933C2.04539 56.4697 0 58.5163 0 61.0301C0 63.544 2.04539 65.5884 4.55933 65.5884H70.4417C72.9557 65.5884 75 63.544 75 61.0301C75 58.5163 72.9557 56.4697 70.4417 56.4697Z" fill="black"/>
</svg>
