<svg width="75" height="75" viewBox="0 0 75 75" fill="none" xmlns="http://www.w3.org/2000/svg">
<path d="M74.1854 70.2577L54.0217 50.0933C58.4426 44.7926 61.1105 37.9816 61.1105 30.5553C61.1105 13.7068 47.4037 0 30.5553 0C13.7068 0 0 13.7068 0 30.5553C0 47.4037 13.7068 61.1105 30.5553 61.1105C37.9816 61.1105 44.7926 58.4426 50.0933 54.0217L70.2577 74.1861C70.8 74.7284 71.5112 75 72.2215 75C72.9319 75 73.6431 74.7284 74.1854 74.1861C75.2708 73.1007 75.2708 71.3424 74.1854 70.2577ZM5.55551 30.5553C5.55551 16.7707 16.7692 5.55551 30.5553 5.55551C44.3413 5.55551 55.5551 16.7707 55.5551 30.5553C55.5551 44.3398 44.3413 55.5551 30.5553 55.5551C16.7692 55.5551 5.55551 44.3398 5.55551 30.5553Z" fill="black"/>
</svg>
