<svg width="50" height="50" viewBox="0 0 50 50" fill="none" xmlns="http://www.w3.org/2000/svg">
<path d="M49.4569 46.8385L36.0145 33.3955C38.9617 29.8617 40.7403 25.3211 40.7403 20.3702C40.7403 9.13788 31.6024 0 20.3702 0C9.13788 0 0 9.13788 0 20.3702C0 31.6024 9.13788 40.7403 20.3702 40.7403C25.3211 40.7403 29.8617 38.9617 33.3955 36.0145L46.8385 49.4574C47.2 49.8189 47.6741 50 48.1477 50C48.6213 50 49.0954 49.8189 49.4569 49.4574C50.1806 48.7338 50.1806 47.5616 49.4569 46.8385ZM3.70367 20.3702C3.70367 11.1805 11.1795 3.70367 20.3702 3.70367C29.5608 3.70367 37.0367 11.1805 37.0367 20.3702C37.0367 29.5599 29.5608 37.0367 20.3702 37.0367C11.1795 37.0367 3.70367 29.5599 3.70367 20.3702Z" fill="black"/>
</svg>
