<svg width="512" height="512" viewBox="0 0 512 512" fill="none" xmlns="http://www.w3.org/2000/svg">
<path d="M356.697 303.82C419.386 217.033 398.42 96.859 309.897 35.4137C221.375 -26.0315 98.7964 -5.49102 36.1221 81.3105C-26.5522 168.097 -5.60086 288.257 82.9369 349.702C146.12 393.558 229.656 396.935 296.299 358.35L441.102 499.461C456.736 515.597 482.75 516.243 499.208 500.915C515.667 485.601 516.326 460.098 500.706 443.962C500.212 443.448 499.732 442.978 499.208 442.494L356.697 303.82ZM196.29 316.975C126.337 316.99 69.6233 261.432 69.5784 192.852C69.5634 124.271 126.232 68.669 196.2 68.6397C266.063 68.6103 322.747 124.08 322.881 192.573C323.001 261.168 266.362 316.858 196.38 316.975C196.35 316.975 196.335 316.975 196.29 316.975Z" fill="#FD8541"/>
</svg>
