<svg width="75" height="75" viewBox="0 0 75 75" fill="none" xmlns="http://www.w3.org/2000/svg">
<g clip-path="url(#clip0_124_496)">
<path d="M40.414 73.8015L67.4999 46.7162C68.273 45.9431 68.6974 44.9127 68.6974 43.8139C68.6974 42.7138 68.2724 41.684 67.4999 40.9109L65.0401 38.4517C64.2681 37.6792 63.237 37.2536 62.1377 37.2536C61.0389 37.2536 59.9731 37.6792 59.2011 38.4517L43.3652 54.2528V4.05203C43.3652 1.78864 41.5934 0.000244141 39.3293 0.000244141H35.8519C33.5879 0.000244141 31.6373 1.78864 31.6373 4.05203V54.432L15.7131 38.4523C14.9398 37.6797 13.9368 37.2542 12.8374 37.2542C11.7393 37.2542 10.7216 37.6797 9.94905 38.4523L7.49724 40.9115C6.72408 41.6846 6.30273 42.7146 6.30273 43.8145C6.30273 44.9133 6.72956 45.9437 7.50272 46.717L34.5879 73.8021C35.3635 74.577 36.3989 75.0032 37.4994 75.0002C38.6036 75.0026 39.6397 74.577 40.414 73.8015Z" fill="black"/>
</g>
<defs>
<clipPath id="clip0_124_496">
<rect width="75" height="75" fill="white"/>
</clipPath>
</defs>
</svg>
