<svg width="50" height="50" viewBox="0 0 50 50" fill="none" xmlns="http://www.w3.org/2000/svg">
<g clip-path="url(#clip0_124_493)">
<path d="M26.9428 49.2011L45 31.1442C45.5154 30.6288 45.7983 29.9419 45.7983 29.2094C45.7983 28.476 45.515 27.7894 45 27.274L43.3601 25.6346C42.8455 25.1195 42.1581 24.8358 41.4252 24.8358C40.6927 24.8358 39.9821 25.1195 39.4675 25.6346L28.9102 36.1686V2.70144C28.9102 1.19251 27.729 0.000244141 26.2196 0.000244141H23.9014C22.392 0.000244141 21.0916 1.19251 21.0916 2.70144V36.2881L10.4755 25.635C9.95995 25.1199 9.2913 24.8362 8.55838 24.8362C7.82627 24.8362 7.14781 25.1199 6.63278 25.635L4.99824 27.2744C4.4828 27.7898 4.2019 28.4765 4.2019 29.2098C4.2019 29.9423 4.48645 30.6292 5.00189 31.1447L23.0587 49.2015C23.5758 49.7181 24.266 50.0022 24.9997 50.0002C25.7358 50.0018 26.4266 49.7181 26.9428 49.2011Z" fill="black"/>
</g>
<defs>
<clipPath id="clip0_124_493">
<rect width="50" height="50" fill="white"/>
</clipPath>
</defs>
</svg>
