<svg width="512" height="512" viewBox="0 0 512 512" fill="none" xmlns="http://www.w3.org/2000/svg">
<g clip-path="url(#clip0)">
<path d="M275.893 503.818L460.799 318.916C466.077 313.638 468.974 306.604 468.974 299.103C468.974 291.593 466.073 284.563 460.799 279.285L444.007 262.497C438.737 257.223 431.698 254.318 424.193 254.318C416.692 254.318 409.416 257.223 404.146 262.497L296.04 370.366L296.04 27.6618C296.04 12.2104 283.944 0.00158691 268.488 0.00158691L244.749 0.00158691C229.293 0.00158691 215.977 12.2104 215.977 27.6618L215.977 371.589L107.268 262.501C101.989 257.227 95.142 254.322 87.6369 254.322C80.1401 254.322 73.1927 257.227 67.9188 262.501L51.1811 279.289C45.903 284.567 43.0266 291.598 43.0266 299.107C43.0266 306.608 45.9404 313.642 51.2185 318.921L236.12 503.822C241.415 509.112 248.483 512.022 255.996 512.001C263.534 512.018 270.607 509.112 275.893 503.818Z" fill="black"/>
</g>
<defs>
<clipPath id="clip0">
<rect width="512" height="512" fill="white" transform="translate(512 512) rotate(-180)"/>
</clipPath>
</defs>
</svg>
