<svg width="75" height="75" viewBox="0 0 75 75" fill="none" xmlns="http://www.w3.org/2000/svg">
<path d="M28.125 2.34375H9.375C5.49174 2.34375 2.34375 5.49174 2.34375 9.375V42.1875C2.34375 46.0708 5.49174 49.2188 9.375 49.2188H28.125C32.0083 49.2188 35.1562 46.0708 35.1562 42.1875V9.375C35.1562 5.49174 32.0083 2.34375 28.125 2.34375Z" fill="black"/>
<path d="M28.125 53.9062H9.375C5.49174 53.9062 2.34375 57.0542 2.34375 60.9375V65.625C2.34375 69.5083 5.49174 72.6562 9.375 72.6562H28.125C32.0083 72.6562 35.1562 69.5083 35.1562 65.625V60.9375C35.1562 57.0542 32.0083 53.9062 28.125 53.9062Z" fill="black"/>
<path d="M65.625 25.7812H46.875C42.9917 25.7812 39.8438 28.9292 39.8438 32.8125V65.625C39.8438 69.5083 42.9917 72.6562 46.875 72.6562H65.625C69.5083 72.6562 72.6562 69.5083 72.6562 65.625V32.8125C72.6562 28.9292 69.5083 25.7812 65.625 25.7812Z" fill="black"/>
<path d="M65.625 2.34375H46.875C42.9917 2.34375 39.8438 5.49174 39.8438 9.375V14.0625C39.8438 17.9458 42.9917 21.0938 46.875 21.0938H65.625C69.5083 21.0938 72.6562 17.9458 72.6562 14.0625V9.375C72.6562 5.49174 69.5083 2.34375 65.625 2.34375Z" fill="black"/>
</svg>
