<svg width="20" height="20" viewBox="0 0 20 20" fill="none" xmlns="http://www.w3.org/2000/svg">
<path d="M19.7828 18.7354L14.4058 13.3582C15.5847 11.9447 16.2962 10.1284 16.2962 8.14808C16.2962 3.65515 12.641 0 8.14808 0C3.65515 0 0 3.65515 0 8.14808C0 12.641 3.65515 16.2962 8.14808 16.2962C10.1284 16.2962 11.9447 15.5847 13.3582 14.4058L18.7354 19.783C18.88 19.9276 19.0697 20 19.259 20C19.4485 20 19.6382 19.9276 19.7828 19.783C20.0722 19.4935 20.0722 19.0246 19.7828 18.7354ZM1.48147 8.14808C1.48147 4.47218 4.4718 1.48147 8.14808 1.48147C11.8243 1.48147 14.8147 4.47218 14.8147 8.14808C14.8147 11.8239 11.8243 14.8147 8.14808 14.8147C4.4718 14.8147 1.48147 11.8239 1.48147 8.14808Z" fill="black"/>
</svg>
