<svg width="25" height="25" viewBox="0 0 25 25" fill="none" xmlns="http://www.w3.org/2000/svg">
<g clip-path="url(#clip0_0_6)">
<path d="M0.286438 11.8087C0.286731 11.8084 0.286976 11.8081 0.287317 11.8078L5.39005 6.72968C5.77233 6.34926 6.39064 6.35068 6.77116 6.733C7.15162 7.11528 7.15016 7.73359 6.76788 8.11406L3.34191 11.5234H24.0234C24.5628 11.5234 25 11.9606 25 12.5C25 13.0394 24.5628 13.4766 24.0234 13.4766H3.34196L6.76783 16.8859C7.15011 17.2664 7.15158 17.8847 6.77111 18.267C6.39059 18.6494 5.77223 18.6507 5.39 18.2703L0.287268 13.1922C0.286976 13.1919 0.286731 13.1915 0.286389 13.1913C-0.0960816 12.8095 -0.0948604 12.1892 0.286438 11.8087Z" fill="black"/>
</g>
<defs>
<clipPath id="clip0_0_6">
<rect width="25" height="25" fill="white"/>
</clipPath>
</defs>
</svg>
