<svg width="50" height="50" viewBox="0 0 50 50" fill="none" xmlns="http://www.w3.org/2000/svg">
<g clip-path="url(#clip0_1_2)">
<path d="M0.572846 23.6175C0.573432 23.6169 0.573921 23.6162 0.574604 23.6156L10.7801 13.4594C11.5446 12.6985 12.7812 12.7014 13.5423 13.466C14.3032 14.2306 14.3003 15.4672 13.5357 16.2281L6.68378 23.0469H48.0469C49.1256 23.0469 50 23.9213 50 25C50 26.0787 49.1256 26.9531 48.0469 26.9531H6.68388L13.5356 33.7719C14.3002 34.5328 14.3031 35.7694 13.5422 36.534C12.7811 37.2987 11.5444 37.3014 10.78 36.5406L0.574506 26.3844C0.573921 26.3838 0.573431 26.3831 0.572748 26.3825C-0.192194 25.619 -0.189751 24.3784 0.572846 23.6175Z" fill="black"/>
</g>
<defs>
<clipPath id="clip0_1_2">
<rect width="50" height="50" fill="white"/>
</clipPath>
</defs>
</svg>
