<svg width="75" height="75" viewBox="0 0 75 75" fill="none" xmlns="http://www.w3.org/2000/svg">
<g clip-path="url(#clip0_1_5)">
<path d="M0.859285 35.4262C0.860164 35.4253 0.860896 35.4243 0.861921 35.4234L16.1701 20.1891C17.3169 19.0478 19.1719 19.0521 20.3134 20.199C21.4548 21.3459 21.4504 23.2008 20.3036 24.3422L10.0257 34.5703H72.0703C73.6884 34.5703 75 35.8819 75 37.5C75 39.1181 73.6884 40.4297 72.0703 40.4297H10.0258L20.3035 50.6578C21.4503 51.7992 21.4547 53.6542 20.3133 54.801C19.1717 55.9481 17.3167 55.9521 16.17 54.8109L0.861775 39.5766C0.860896 39.5757 0.860162 39.5747 0.859137 39.5738C-0.288275 38.4286 -0.284612 36.5676 0.859285 35.4262Z" fill="black"/>
</g>
<defs>
<clipPath id="clip0_1_5">
<rect width="75" height="75" fill="white"/>
</clipPath>
</defs>
</svg>
