<svg width="75" height="75" viewBox="0 0 75 75" fill="none" xmlns="http://www.w3.org/2000/svg">
<g clip-path="url(#clip0_1_133)">
<path d="M72.9763 32.6213C72.9746 32.6197 72.9728 32.618 72.971 32.6162L42.3771 2.02332C41.073 0.718689 39.3393 0 37.495 0C35.6508 0 33.917 0.718116 32.6124 2.02274L2.03433 32.6002C2.02403 32.6105 2.01373 32.6213 2.00343 32.6317C-0.674483 35.325 -0.669905 39.6949 2.01659 42.3814C3.24397 43.6094 4.86504 44.3208 6.59824 44.395C6.66863 44.4019 6.73957 44.4054 6.8111 44.4054H8.03046V66.9199C8.03046 71.3751 11.6554 75 16.1117 75H28.0811C29.2941 75 30.2783 74.0164 30.2783 72.8027V55.1514C30.2783 53.1183 31.932 51.4646 33.965 51.4646H41.025C43.0579 51.4646 44.7116 53.1183 44.7116 55.1514V72.8027C44.7116 74.0164 45.6952 75 46.9088 75H58.8782C63.3346 75 66.9595 71.3751 66.9595 66.9199V44.4054H68.0902C69.9338 44.4054 71.6676 43.6872 72.9728 42.3826C75.6623 39.6916 75.6633 35.3142 72.9763 32.6213Z" fill="black"/>
</g>
<defs>
<clipPath id="clip0_1_133">
<rect width="75" height="75" fill="white"/>
</clipPath>
</defs>
</svg>
